<?xml version="1.0" encoding="UTF-8" standalone="no"?>
<!-- Created with Inkscape (http://www.inkscape.org/) -->

<svg
   width="210mm"
   height="297mm"
   viewBox="0 0 210 297"
   version="1.1"
   id="svg1"
   inkscape:version="1.3 (0e150ed6c4, 2023-07-21)"
   sodipodi:docname="haciendoLogo.svg"
   xmlns:inkscape="http://www.inkscape.org/namespaces/inkscape"
   xmlns:sodipodi="http://sodipodi.sourceforge.net/DTD/sodipodi-0.dtd"
   xmlns="http://www.w3.org/2000/svg"
   xmlns:svg="http://www.w3.org/2000/svg">
  <sodipodi:namedview
     id="namedview1"
     pagecolor="#ffffff"
     bordercolor="#000000"
     borderopacity="0.25"
     inkscape:showpageshadow="2"
     inkscape:pageopacity="0.0"
     inkscape:pagecheckerboard="0"
     inkscape:deskcolor="#d1d1d1"
     inkscape:document-units="mm"
     inkscape:zoom="0.5"
     inkscape:cx="-1482"
     inkscape:cy="287"
     inkscape:window-width="3440"
     inkscape:window-height="1377"
     inkscape:window-x="1432"
     inkscape:window-y="921"
     inkscape:window-maximized="1"
     inkscape:current-layer="layer1"
     showguides="true" />
  <defs
     id="defs1" />
  <g
     inkscape:label="Capa 1"
     inkscape:groupmode="layer"
     id="layer1">
    <rect
       style="opacity:0.981233;fill:#000000;fill-opacity:1;stroke:#000000;stroke-width:0.190187;stroke-miterlimit:9;stroke-dasharray:none"
       id="rect188-4"
       width="244.51823"
       height="93.343063"
       x="-580.73541"
       y="40.506248" />
    <path
       d="m -169.26584,-139.58844 1.11539,37.03237 -9.34322,1.26808 -1.50411,-19.45054 -2.96046,16.02149 -3.62179,0.2951 -4.39517,-13.75236 1.28678,16.2819 -9.47901,1.12755 -2.42088,-34.7511 10.53686,-1.36543 5.555,16.28773 4.15888,-18.09179 z m 12.71768,0.22697 0.52772,34.39977 -8.63943,1.26118 -2.77913,-34.06432 z m 28.52119,28.1203 q -0.84634,1.56108 -2.17614,2.78224 -1.3298,1.22117 -2.89615,2.08234 -1.56631,0.86117 -3.2457,1.35226 -1.67736,0.51608 -3.22084,0.64204 -2.98399,0.24338 -5.60126,-0.85806 -2.61728,-1.10148 -4.63533,-3.23811 -1.99953,-2.16336 -3.28266,-5.19441 -1.28313,-3.0311 -1.57621,-6.62342 -0.2234,-2.73821 0.078,-5.39281 0.29929,-2.67968 1.05738,-5.06808 0.77664,-2.41519 1.99766,-4.46203 1.21896,-2.07191 2.85343,-3.62142 1.63447,-1.54951 3.64945,-2.49781 2.01501,-0.94831 4.38163,-1.14142 0.88495,-0.0722 1.90153,-0.0538 1.01453,-0.004 2.02079,0.13873 1.0248,0.11861 2.00219,0.41848 0.97738,0.29961 1.8045,0.78844 l 0.20669,9.64331 q -1.19548,-0.4335 -2.44458,-0.50866 -1.23061,-0.10137 -2.40362,-0.008 -1.64636,0.13421 -3.03568,0.87984 -1.37079,0.7188 -2.34665,1.96163 -0.95525,1.24123 -1.43736,2.94958 -0.48214,1.70835 -0.31201,3.79348 0.10655,1.30628 0.49499,2.51374 0.38635,1.18229 1.04059,2.08989 0.67264,0.88079 1.58415,1.38804 0.93205,0.50558 2.08449,0.41163 0.78199,-0.064 1.58468,-0.38212 0.82326,-0.32014 1.37091,-0.97166 l -0.0776,-1.96618 -4.94725,0.30208 -0.36779,-7.5565 q 3.05606,-0.37595 6.1163,-0.70118 3.05809,-0.35092 6.15334,-0.75487 z m 24.31607,-24.94572 q 0.15165,1.85898 0.19007,4.10652 0.0386,2.24753 -0.0962,4.66092 -0.13458,2.41335 -0.46877,4.91893 -0.31566,2.47865 -0.91321,4.80339 -0.59758,2.32474 -1.48522,4.39492 -0.86913,2.04343 -2.10642,3.6364 -1.2188,1.5661 -2.8181,2.53111 -1.59725,0.99017 -3.63461,1.15635 -2.38723,0.19496 -4.23494,-0.61544 -1.82508,-0.7868 -3.20956,-2.26699 -1.3865,-1.50535 -2.36126,-3.55001 -0.97682,-2.06986 -1.62224,-4.39426 -0.64743,-2.34961 -1.03351,-4.79637 -0.36775,-2.47357 -0.55427,-4.7596 -0.28693,-3.51697 -0.28385,-7.03229 10e-4,-3.54048 0.25135,-7.07596 l 9.66806,-0.33368 q -0.23387,3.98937 -0.31957,8.01721 -0.0673,4.00107 0.26067,8.0204 0.0349,0.42706 0.12498,1.27953 0.10897,0.82567 0.27729,1.87404 0.16622,1.02325 0.40041,2.11681 0.25259,1.0668 0.59406,1.94936 0.34132,0.88247 0.75888,1.43011 0.43821,0.54584 0.95263,0.50389 0.59684,-0.0488 1.01479,-0.76558 0.41597,-0.74202 0.67152,-1.92612 0.27593,-1.18583 0.42072,-2.71494 0.14455,-1.52911 0.19655,-3.17708 0.0521,-1.64798 0.0218,-3.28926 -0.009,-1.64293 -0.0627,-3.05478 -0.0324,-1.41349 -0.10022,-2.49535 -0.0677,-1.08187 -0.11074,-1.60948 -0.15986,-1.95941 -0.37944,-3.88869 -0.20116,-1.95609 -0.46168,-3.88205 l 9.63109,-0.78578 q 0.52992,3.44662 0.82095,7.01378 z m 20.458739,-10.01429 q 0.0691,2.37144 0.15502,4.69097 0.0855,2.31957 0.11369,4.69438 l -8.68059,1.26454 0.0525,3.1821 6.13277,-0.50024 0.18265,7.82451 -6.15335,0.75487 0.0935,3.6845 5.10362,-0.41638 3.62195,-0.29552 q 0.10191,2.77343 0.18133,5.52338 0.0978,2.72322 0.21855,5.46976 l -17.69848,1.94973 -2.296909,-36.27849 z m 20.57619,20.37278 0.0457,11.22434 -17.19264,3.07168 q -0.59174,-8.77733 -1.15484,-17.45591 -0.54264,-8.68022 -1.0313,-17.46605 l 10.70155,-0.87311 q -0.0246,5.54011 -0.008,11.07695 0.0148,5.51163 0.28443,11.10367 0.97134,-0.0287 1.918,-0.1059 0.94664,-0.0772 1.91386,-0.15637 1.15248,-0.094 2.26173,-0.20891 1.10929,-0.11533 2.26173,-0.20891 z m 10.36263,-22.03713 0.52772,34.39976 -8.63944,1.26123 -2.77929,-34.06436 z m 23.12734,-2.44319 0.66324,10.6682 -6.10808,0.80178 0.37891,23.94253 -8.63944,1.26118 -1.90164,-23.81825 -6.09987,0.9025 -0.7203,-11.87737 z m 27.24935,16.08568 q 0.1865,2.28599 -0.0716,4.45653 -0.25997,2.14542 -0.93151,4.07154 -0.65094,1.92453 -1.69689,3.57771 -1.02742,1.62643 -2.39842,2.85096 -1.35037,1.22284 -3.00723,1.99023 -1.6589,0.74227 -3.57279,0.8984 -1.85213,0.15145 -3.58679,-0.28895 -1.71407,-0.44175 -3.25924,-1.35254 -1.54721,-0.93591 -2.85972,-2.29555 -1.29395,-1.38641 -2.28322,-3.1012 -0.97075,-1.74155 -1.61211,-3.7629 -0.62082,-2.02299 -0.80323,-4.25878 -0.17833,-2.18556 0.0839,-4.30586 0.26001,-2.14542 0.91097,-4.0699 0.67151,-1.92613 1.69689,-3.57767 1.02537,-1.65155 2.35312,-2.89783 1.34833,-1.24801 2.96404,-2.01199 1.61569,-0.76406 3.46786,-0.91518 2.98399,-0.24339 5.52519,0.68723 2.56173,0.92897 4.46259,2.89811 1.91936,1.94234 3.1099,4.85453 1.2091,2.88543 1.50833,6.55311 z m -9.08397,1.39855 q -0.0882,-1.08018 -0.43765,-2.06321 -0.33109,-1.00979 -0.88844,-1.74828 -0.5595,-0.76357 -1.33928,-1.18045 -0.76129,-0.44364 -1.70793,-0.36652 -0.96725,0.0792 -1.69382,0.56808 -0.72661,0.48924 -1.22077,1.28815 -0.47563,0.77219 -0.68177,1.80053 -0.20805,1.00322 -0.11787,2.10856 0.0861,1.05511 0.41924,2.09006 0.33315,1.0349 0.89664,1.84871 0.5636,0.81381 1.3269,1.28261 0.78391,0.46711 1.75113,0.38827 0.96725,-0.0792 1.69177,-0.5932 0.74309,-0.54112 1.21462,-1.3635 0.46949,-0.84755 0.67357,-1.90101 0.20394,-1.0535 0.11381,-2.15884 z"
       id="path170-9-3-4"
       style="font-size:11.3832px;line-height:0.9;font-family:'Luckiest Guy';-inkscape-font-specification:'Luckiest Guy';text-align:center;letter-spacing:0px;text-anchor:middle;opacity:0.981233;fill:#ff5050;fill-opacity:1;stroke:none;stroke-width:4;stroke-miterlimit:9;stroke-dasharray:none"
       aria-label="MIGUELITO"
       inkscape:transform-center-x="-76.48287"
       inkscape:transform-center-y="-24.442737" />
    <path
       id="path301-5-6"
       style="color:#000000;-inkscape-font-specification:'Luckiest Guy';opacity:0.981233;fill:#ff5050;fill-opacity:1;stroke:none;stroke-width:0.05;stroke-miterlimit:9;stroke-dasharray:none"
       d="m -408.59262,-88.223045 -10.96833,0.89452 -4.68188,20.36878 -6.26939,-18.38647 -10.4159,1.35134 2.50734,35.99056 9.18394,-1.09192 -1.62884,-20.59977 5.70094,17.83818 3.16622,-0.25786 3.68349,-19.93935 1.81643,23.49004 6.25181,-0.84853 0.98857,-5.31389 1.67949,0.13333 z"
       inkscape:export-filename="mini_logo_bg_white.svg"
       inkscape:export-xdpi="96"
       inkscape:export-ydpi="96" />
    <path
       id="text2-3-7-8"
       style="font-size:23.4247px;line-height:0.9;font-family:'Luckiest Guy';-inkscape-font-specification:'Luckiest Guy';text-align:center;letter-spacing:0px;text-anchor:middle;opacity:0.981233;stroke:#000000;stroke-width:0;stroke-miterlimit:9"
       d="m -407.74875,-89.164585 -0.45682,0.03721 -12.06076,0.98237 -4.14032,18.00975 -5.51181,-16.16387 -11.9357,1.54461 2.34249,33.64446 -0.24391,14.23996 c 0.32459,0.0421 0.64265,0.07549 0.95343,0.10076 0.31077,0.0169 0.62833,0.02533 0.95291,0.02533 0.87018,0 1.716,-0.0798 2.53783,-0.23978 0.82874,-0.16839 1.60942,-0.4208 2.34146,-0.75758 0.73205,-0.34518 1.40539,-0.7832 2.02003,-1.31361 0.61465,-0.53041 1.14293,-1.16199 1.58492,-1.89446 0.44889,-0.74089 0.79731,-1.58247 1.04593,-2.52543 0.24862,-0.95135 0.3731,-2.01646 0.3731,-3.19515 0,-1.21399 -0.16351,-2.30177 -0.48472,-3.26802 l -0.9741,-12.33206 2.37039,7.4166 h -0.031 l -0.33176,18.21077 8.92968,-0.2527 c 0.0346,-0.91768 0.0728,-1.83113 0.11421,-2.7404 0.0484,-0.9177 0.093,-1.83961 0.13436,-2.76572 h -1.82315 -2.56883 l 0.10335,-1.84381 3.10782,-0.1261 0.22789,-3.915 h -3.08715 l 0.10387,-1.59112 4.3925,-0.27802 c 0.0468,-0.6699 0.0818,-1.33069 0.11369,-1.98851 l 0.35346,4.56562 0.91003,-0.12351 2.96312,11.28665 5.13819,-0.35399 3.7915,-17.57928 -2.21227,-0.1757 z m -0.84388,0.94155 1.01389,33.62895 -1.67948,-0.13332 -0.98857,5.31389 -1.85777,0.25218 -4.39405,0.59634 -0.44338,-5.73556 -1.37304,-17.75448 -3.17759,17.20154 -0.50591,2.73781 -3.16621,0.25787 -0.95757,-2.99568 -4.74338,-14.84251 1.39682,17.66507 0.23202,2.93471 -3.76876,0.44803 -0.61495,0.07338 -1.0051,0.11938 -3.79512,0.45113 -0.42013,-6.03322 -2.08721,-29.95735 10.4159,-1.35134 6.26938,18.38648 4.68189,-20.36878 z m -10.07794,22.87509 0.81236,10.49445 h -2.75022 z m 8.25635,16.83566 -0.7705,4.14083 -0.75551,-3.93361 z m -22.09788,0.68316 c 0.0824,0.20289 0.14821,0.41957 0.19431,0.65371 0.0897,0.42096 0.13141,0.85899 0.12454,1.31362 v 0.17673 c -0.0138,0.48832 -0.0898,0.96424 -0.2279,1.4273 -0.13122,0.45463 -0.32136,0.8712 -0.56999,1.25006 -0.24171,0.37045 -0.53132,0.68624 -0.86971,0.94722 -0.33841,0.25258 -0.71476,0.41671 -1.12913,0.49248 l 0.31729,-6.00377 z" />
    <path
       style="font-size:11.3832px;line-height:0.9;font-family:'Luckiest Guy';-inkscape-font-specification:'Luckiest Guy';text-align:center;letter-spacing:0px;text-anchor:middle;opacity:0.981233;fill:none;stroke:none;stroke-width:0.870632;stroke-miterlimit:9;stroke-dasharray:none"
       d="m -407.02178,-83.643235 1.18301,39.27743 -9.90961,1.34495 -1.59531,-20.62971 -3.13993,16.99277 -3.84136,0.313 -4.66162,-14.58609 1.3648,17.26898 -10.05367,1.1959 -2.56766,-36.85785 11.17564,-1.44821 5.89179,17.27516 4.41101,-19.18859 z"
       id="path295-6-3" />
    <text
       xml:space="preserve"
       style="font-style:normal;font-variant:normal;font-weight:normal;font-stretch:normal;font-size:22.3339px;line-height:0.9;font-family:'Luckiest Guy';-inkscape-font-specification:'Luckiest Guy';text-align:center;letter-spacing:0px;text-anchor:middle;opacity:0.981233;fill:#ffffff;fill-opacity:0.810659;stroke:#000000;stroke-width:0;stroke-miterlimit:9;stroke-dasharray:none"
       x="-57.293858"
       y="-91.490868"
       id="text2-0"
       transform="scale(0.90510016,1.1048501)"><tspan
         sodipodi:role="line"
         id="tspan2-2"
         style="fill:#ffffff;fill-opacity:0.810659;stroke:#000000;stroke-width:0;stroke-dasharray:none"
         x="-57.293858"
         y="-91.490868">DEVELOPER</tspan></text>
    <g
       id="g331"
       transform="translate(4.1338007,0.49340515)"
       inkscape:export-filename="logo_bg_black.svg"
       inkscape:export-xdpi="96"
       inkscape:export-ydpi="96">
      <path
         id="path170-9-3-4-5"
         style="font-size:11.3832px;line-height:0.9;font-family:'Luckiest Guy';-inkscape-font-specification:'Luckiest Guy';text-align:center;letter-spacing:0px;text-anchor:middle;opacity:0.981233;fill:#ff5050;fill-opacity:1;stroke:none;stroke-width:4;stroke-miterlimit:9;stroke-dasharray:none"
         inkscape:transform-center-x="-76.48287"
         inkscape:transform-center-y="-24.442737"
         d="m -390.57254,61.9125 -22.42757,1.880505 0.72037,11.877312 6.09988,-0.902271 1.52962,19.157487 c 0.22698,-0.0273 0.453,-0.05943 0.68523,-0.05943 1.04715,0 2.02748,0.199403 2.92386,0.612883 h 0.002 c 0.8958,0.410319 1.6831,1.012931 2.33009,1.80144 0.32577,0.388943 0.55074,0.882248 0.77153,1.380278 l 0.21446,-0.03152 c 2.1e-4,-0.07185 0.001,-0.143653 5.2e-4,-0.215491 -0.007,-1.001129 0.009,-2.011273 0.0496,-3.027722 l 0.032,-0.781348 0.61494,-0.224275 c 0.43879,-0.159014 0.87835,-0.298256 1.31827,-0.418063 l -0.31006,-19.579683 6.10816,-0.802018 z m 14.10766,1.044381 c -0.47888,-0.0084 -0.96718,0.008 -1.46451,0.04858 -1.23478,0.100746 -2.39088,0.4053 -3.468,0.914672 -1.07714,0.50932 -2.06476,1.180275 -2.96365,2.012281 -0.88516,0.830852 -1.66976,1.796982 -2.35334,2.898014 -0.68359,1.101026 -1.24938,2.293474 -1.69705,3.577559 -0.43398,1.282986 -0.7372,2.639758 -0.91054,4.070036 -0.17482,1.413532 -0.20312,2.848642 -0.0842,4.305681 0.12161,1.490525 0.38969,2.909996 0.80357,4.258654 0.42758,1.347566 0.96463,2.602046 1.61179,3.763078 0.65951,1.143192 1.42095,2.17683 2.28358,3.101103 0.28065,0.290722 0.5828,0.542423 0.87954,0.804085 h 8.3199 0.96532 l -0.0305,0.558622 c 0.26054,-0.10048 0.52312,-0.218856 0.78135,-0.297656 0.47986,-0.14644 0.96076,-0.258514 1.4428,-0.336413 0.47672,-0.08391 0.95559,-0.138632 1.43867,-0.164332 0.48481,-0.0332 0.98039,-0.04961 1.48363,-0.04961 0.46914,0 0.93069,0.05107 1.38493,0.14211 0.74996,-0.729386 1.43483,-1.535351 2.01848,-2.459281 0.6973,-1.102119 1.26258,-2.294541 1.69654,-3.57756 0.44769,-1.284078 0.75841,-2.641307 0.93173,-4.071586 0.17206,-1.447025 0.19564,-2.932583 0.0713,-4.456575 h 5.2e-4 c -0.19949,-2.445118 -0.70237,-4.62947 -1.50844,-6.553089 -0.79369,-1.941458 -1.83031,-3.559592 -3.10989,-4.854484 -1.26723,-1.312758 -2.75495,-2.279218 -4.46277,-2.898531 -1.2706,-0.465309 -2.62409,-0.710299 -4.06074,-0.735355 z m -37.23493,1.398881 -10.89133,1.596801 2.18281,26.756507 h 2.86598 l 0.002,-0.07338 h 6.27403 z m -18.99419,0.537951 -10.70167,0.873332 c 0.32577,5.857214 0.6697,11.67931 1.03146,17.466117 0.20378,3.14079 0.41742,6.315718 0.62683,9.475908 h 0.40204 0.9648 l -0.0248,0.476457 3.89795,-0.442351 1.17926,6.150012 1.13843,-6.124174 4.9196,0.392741 0.009,-0.452685 h 5.21415 l -0.0258,-6.31486 c -0.76829,0.06239 -1.52235,0.131886 -2.26188,0.208773 -0.73949,0.07661 -1.49304,0.146623 -2.26136,0.209289 -0.64481,0.05278 -1.283,0.104596 -1.91409,0.156063 -0.63111,0.05147 -1.27015,0.0868 -1.91771,0.105937 -0.17976,-3.728023 -0.27487,-7.429299 -0.28474,-11.103715 -0.0111,-3.691223 -0.008,-7.383441 0.008,-11.076844 z m -11.94501,1.126547 -18.97352,1.547709 1.64641,25.999446 c 0.60196,-0.198257 1.21211,-0.360532 1.83762,-0.452685 0.80519,-0.12569 1.60449,-0.190169 2.39882,-0.190169 1.03169,0 2.00349,0.19051 2.90059,0.58291 0.89412,0.391119 1.68898,0.969183 2.3549,1.725993 0.46319,0.526429 0.75572,1.235122 1.0728,1.916162 l 0.0816,-4.440556 h 7.36183 c -0.0206,-0.602591 -0.0367,-1.200795 -0.0589,-1.805058 l -3.622,0.295072 -5.10408,0.416513 -0.093,-3.68453 6.15312,-0.754993 -0.18242,-7.824328 -6.13296,0.500227 -0.0527,-3.182234 8.68061,-1.264523 c -0.0188,-1.583205 -0.0567,-3.147908 -0.11369,-4.694287 -0.0573,-1.546351 -0.10896,-3.109711 -0.15503,-4.690669 z m -21.28035,3.000333 -9.63094,0.785482 c 0.17368,1.283972 0.32736,2.578392 0.46147,3.88245 0.14639,1.286186 0.27325,2.58238 0.37982,3.888652 0.0287,0.35174 0.0655,0.887958 0.11059,1.609204 0.0452,0.721239 0.0786,1.553129 0.10025,2.495455 0.0358,0.941232 0.0565,1.959308 0.0625,3.054594 0.0202,1.094185 0.013,2.191069 -0.0217,3.289722 -0.0347,1.098645 -0.10001,2.157661 -0.19638,3.177067 -0.0965,1.019405 -0.23669,1.92401 -0.42064,2.714563 -0.17037,0.789399 -0.39448,1.431817 -0.67179,1.926497 -0.27864,0.477853 -0.61704,0.732795 -1.01493,0.765328 -0.34295,0.02797 -0.66026,-0.139952 -0.9524,-0.503845 -0.27837,-0.365093 -0.53158,-0.841574 -0.75912,-1.429887 -0.22765,-0.588373 -0.42537,-1.238553 -0.59377,-1.949752 -0.15612,-0.729039 -0.28967,-1.434501 -0.40049,-2.116667 -0.11221,-0.698912 -0.20485,-1.323858 -0.2775,-1.874304 -0.0601,-0.568313 -0.10179,-0.994802 -0.12506,-1.279508 -0.21864,-2.679551 -0.30531,-5.352805 -0.26045,-8.020183 0.0571,-2.685224 0.16345,-5.357504 0.31936,-8.017081 l -9.66762,0.333313 c -0.1669,2.356984 -0.251,4.715736 -0.25167,7.076054 -0.002,2.343544 0.0929,4.688001 0.28422,7.032645 0.12435,1.524019 0.30881,3.110355 0.55397,4.7594 0.25739,1.631171 0.60191,3.230201 1.03353,4.796606 0.43028,1.549599 0.97091,3.014142 1.62213,4.394047 0.64984,1.363105 1.43728,2.546605 2.36161,3.550175 0.92298,0.98679 1.99239,1.74251 3.20911,2.26704 1.2318,0.54027 2.64391,0.74544 4.2354,0.61547 1.35823,-0.11079 2.56957,-0.49641 3.6344,-1.15652 1.0662,-0.64334 2.00538,-1.48705 2.81792,-2.53111 0.82485,-1.06198 1.52742,-2.27419 2.10684,-3.636473 0.59176,-1.380119 1.0868,-2.845256 1.48518,-4.395081 0.39837,-1.549825 0.70269,-3.150893 0.91313,-4.803324 0.22279,-1.670385 0.37898,-3.310181 0.4687,-4.91908 0.0899,-1.608925 0.12185,-3.162345 0.0961,-4.660697 -0.0256,-1.498359 -0.0891,-2.867408 -0.19017,-4.106726 h -5.2e-4 c -0.19402,-2.378105 -0.46785,-4.715781 -0.82113,-7.013526 z m -34.20929,0.667143 c -0.67772,-0.01227 -1.31172,0.0056 -1.90169,0.05374 -1.57774,0.12874 -3.0383,0.509327 -4.38164,1.141533 -1.34332,0.632199 -2.55975,1.464516 -3.64939,2.497522 -1.08965,1.033005 -2.04094,2.240212 -2.85358,3.621484 -0.81401,1.364559 -1.48005,2.852135 -1.99781,4.46226 -0.50539,1.592265 -0.85777,3.281456 -1.0573,5.067908 -0.20093,1.769731 -0.22696,3.567481 -0.078,5.392952 0.19539,2.394878 0.72071,4.602637 1.57613,6.623369 0.85542,2.020696 1.94999,3.751766 3.28301,5.193996 1.34536,1.42442 2.89052,2.50425 4.63537,3.23857 1.74485,0.73429 3.61189,1.02008 5.60121,0.85783 1.02899,-0.084 2.10224,-0.29777 3.22048,-0.64183 1.11959,-0.32739 2.20159,-0.77826 3.24579,-1.35237 1.04424,-0.57411 2.00994,-1.26845 2.89647,-2.08256 0.88653,-0.8141 1.61187,-1.74154 2.17609,-2.78226 l -1.62419,-16.862537 c -2.0635,0.2693 -4.1149,0.521046 -6.15363,0.754993 -2.04016,0.21682 -4.07853,0.450099 -6.1159,0.700732 l 0.36742,7.556645 4.9475,-0.30179 0.0775,1.965771 c -0.3651,0.434346 -0.82213,0.758607 -1.37097,0.972034 -0.53513,0.21208 -1.06308,0.339222 -1.5844,0.381889 -0.7683,0.06263 -1.46326,-0.07429 -2.08463,-0.411345 -0.60767,-0.338166 -1.13597,-0.800836 -1.5844,-1.388029 -0.43616,-0.605066 -0.78268,-1.302119 -1.04025,-2.090311 -0.25896,-0.804973 -0.42402,-1.64269 -0.49506,-2.513542 -0.11342,-1.390085 -0.009,-2.654668 0.31213,-3.793567 0.32141,-1.138899 0.80029,-2.122205 1.43712,-2.949691 0.65057,-0.828552 1.43277,-1.482438 2.34663,-1.961637 0.92621,-0.497086 1.93842,-0.79006 3.03599,-0.879533 0.782,-0.06225 1.58306,-0.05983 2.40347,0.0078 0.83273,0.05011 1.64731,0.220014 2.44429,0.509013 l -0.2067,-9.643339 c -0.55141,-0.325886 -1.15244,-0.588842 -1.80403,-0.788582 -0.65159,-0.199913 -1.31926,-0.339506 -2.00246,-0.418579 -0.67084,-0.09515 -1.34419,-0.14116 -2.02055,-0.138493 z m -30.52371,2.94504 -11.07168,0.902787 -4.15892,18.091919 -5.55522,-16.287895 -10.53682,1.365809 2.42104,34.750854 9.47901,-1.12758 -1.28674,-16.281697 4.39508,13.752127 3.62148,-0.29507 2.96054,-16.021242 1.5043,19.450492 9.3431,-1.26814 z m 12.71757,0.226859 -10.89081,1.596802 2.77916,34.064073 8.63926,-1.26091 z m 141.15417,1.17874 c 0.63109,-0.05141 1.20038,0.07063 1.70791,0.366386 0.51985,0.277919 0.96645,0.671243 1.33945,1.180289 0.37157,0.492327 0.66759,1.075022 0.88832,1.748214 0.23296,0.655353 0.3789,1.343321 0.4377,2.06344 0.0601,0.736893 0.0223,1.456709 -0.11369,2.159041 -0.13605,0.702306 -0.36035,1.335627 -0.67334,1.90066 -0.31436,0.548252 -0.71952,1.002994 -1.21492,1.363741 -0.48301,0.342666 -1.04705,0.540445 -1.69188,0.593245 -0.64482,0.05256 -1.2282,-0.0772 -1.7508,-0.388607 -0.50887,-0.312533 -0.95132,-0.740069 -1.32705,-1.282609 -0.37566,-0.542539 -0.67449,-1.158533 -0.89659,-1.848466 -0.22209,-0.689966 -0.36169,-1.386905 -0.41909,-2.090311 -0.0601,-0.736893 -0.0209,-1.439586 0.11782,-2.108399 0.13742,-0.685559 0.36452,-1.285614 0.68161,-1.800407 0.32944,-0.532606 0.73619,-0.962133 1.2206,-1.288293 0.48438,-0.32592 1.04912,-0.515124 1.69395,-0.567924 z m -79.98168,26.490885 -0.14986,2.83239 0.58187,-0.0641 c 0.0574,-0.25006 0.0974,-0.50121 0.10542,-0.76223 v -0.14262 -0.0109 l 0.002,-0.009 c 0.005,-0.33882 -0.0257,-0.65482 -0.0899,-0.95601 l -0.002,-0.009 -0.002,-0.0108 c -0.0525,-0.26699 -0.1327,-0.46962 -0.24391,-0.6475 l -0.009,-0.0129 -0.007,-0.0129 c -0.0481,-0.0818 -0.12612,-0.13001 -0.18552,-0.19431 z"
         sodipodi:nodetypes="cccccsccccccccccccccsscsccscccccccsccscccccccccscccccccccccccccccccccccscccccccsssccccccccccccccccsssccscccscsccccccccscccccccccscccccccssccccsscsscssccccccccccccssccccccccccccccccccccccccccccccccccccccssscccccccccscscccccccccsc" />
      <text
         xml:space="preserve"
         style="font-style:normal;font-variant:normal;font-weight:normal;font-stretch:normal;font-size:22.3339px;line-height:0.9;font-family:'Luckiest Guy';-inkscape-font-specification:'Luckiest Guy';text-align:center;letter-spacing:0px;text-anchor:middle;opacity:0.981233;fill:#ffffff;fill-opacity:1;stroke:#000000;stroke-width:0;stroke-miterlimit:9;stroke-dasharray:none"
         x="-456.57196"
         y="100.59059"
         id="text2-0-7"
         transform="scale(0.90510016,1.1048501)"><tspan
           sodipodi:role="line"
           id="tspan2-2-6"
           style="fill:#ffffff;fill-opacity:1;stroke:#000000;stroke-width:0;stroke-dasharray:none"
           x="-456.57196"
           y="100.59059">DEVELOPER</tspan></text>
    </g>
    <rect
       style="opacity:0.981233;fill:#ffffff;fill-opacity:1;stroke:#000000;stroke-width:0.190187;stroke-miterlimit:9;stroke-dasharray:none"
       id="rect188-4-5"
       width="244.51823"
       height="93.343063"
       x="-580.73541"
       y="227.57275" />
    <path
       id="path170-9-3-4-5-3"
       style="font-size:11.3832px;line-height:0.9;font-family:'Luckiest Guy';-inkscape-font-specification:'Luckiest Guy';text-align:center;letter-spacing:0px;text-anchor:middle;opacity:0.981233;fill:#000000;fill-opacity:1;stroke:none;stroke-width:4;stroke-miterlimit:9;stroke-dasharray:none"
       inkscape:transform-center-x="-76.48287"
       inkscape:transform-center-y="-24.442737"
       d="m -390.57251,248.979 -22.42757,1.8805 0.72037,11.87732 6.09988,-0.90227 1.52962,19.15748 c 0.22698,-0.0273 0.453,-0.0594 0.68523,-0.0594 1.04715,0 2.02748,0.19941 2.92386,0.61289 h 0.002 c 0.8958,0.41031 1.6831,1.01293 2.33009,1.80144 0.32577,0.38894 0.55074,0.88224 0.77153,1.38027 l 0.21446,-0.0315 c 2.1e-4,-0.0718 0.001,-0.14365 5.2e-4,-0.21549 -0.007,-1.00113 0.009,-2.01127 0.0496,-3.02772 l 0.032,-0.78135 0.61494,-0.22427 c 0.43879,-0.15902 0.87835,-0.29826 1.31827,-0.41807 l -0.31006,-19.57968 6.10816,-0.80202 z m 14.10766,1.04438 c -0.47888,-0.008 -0.96718,0.008 -1.46451,0.0486 -1.23478,0.10075 -2.39088,0.4053 -3.468,0.91467 -1.07714,0.50932 -2.06476,1.18028 -2.96365,2.01228 -0.88516,0.83086 -1.66976,1.79699 -2.35334,2.89802 -0.68359,1.10102 -1.24938,2.29347 -1.69705,3.57756 -0.43398,1.28298 -0.7372,2.63976 -0.91054,4.07003 -0.17482,1.41353 -0.20312,2.84864 -0.0842,4.30568 0.12161,1.49053 0.38969,2.91 0.80357,4.25866 0.42758,1.34756 0.96463,2.60204 1.61179,3.76308 0.65951,1.14319 1.42095,2.17683 2.28358,3.1011 0.28065,0.29072 0.5828,0.54242 0.87954,0.80408 h 8.3199 0.96532 l -0.0305,0.55863 c 0.26054,-0.10048 0.52312,-0.21886 0.78135,-0.29766 0.47986,-0.14644 0.96076,-0.25851 1.4428,-0.33641 0.47672,-0.0839 0.95559,-0.13863 1.43867,-0.16434 0.48481,-0.0332 0.98039,-0.0496 1.48363,-0.0496 0.46914,0 0.93069,0.0511 1.38493,0.14211 0.74996,-0.72939 1.43483,-1.53536 2.01848,-2.45929 0.6973,-1.10211 1.26258,-2.29454 1.69654,-3.57756 0.44769,-1.28407 0.75841,-2.6413 0.93173,-4.07158 0.17206,-1.44703 0.19564,-2.93259 0.0713,-4.45658 h 5.2e-4 c -0.19949,-2.44512 -0.70237,-4.62947 -1.50844,-6.55309 -0.79369,-1.94145 -1.83031,-3.55959 -3.10989,-4.85448 -1.26723,-1.31276 -2.75495,-2.27922 -4.46277,-2.89853 -1.2706,-0.46531 -2.62409,-0.7103 -4.06074,-0.73536 z m -37.23493,1.39888 -10.89133,1.5968 2.18281,26.75651 h 2.86598 l 0.002,-0.0734 h 6.27403 z m -18.99419,0.53795 -10.70167,0.87333 c 0.32577,5.85722 0.6697,11.67931 1.03146,17.46612 0.20378,3.14079 0.41742,6.31572 0.62683,9.47591 h 0.40204 0.9648 l -0.0248,0.47646 3.89795,-0.44235 1.17926,6.15001 1.13843,-6.12418 4.9196,0.39275 0.009,-0.45269 h 5.21415 l -0.0258,-6.31486 c -0.76829,0.0624 -1.52235,0.13189 -2.26188,0.20877 -0.73949,0.0766 -1.49304,0.14663 -2.26136,0.20929 -0.64481,0.0528 -1.283,0.1046 -1.91409,0.15607 -0.63111,0.0515 -1.27015,0.0868 -1.91771,0.10593 -0.17976,-3.72802 -0.27487,-7.4293 -0.28474,-11.10371 -0.0111,-3.69123 -0.008,-7.38344 0.008,-11.07685 z m -11.94501,1.12655 -18.97352,1.54771 1.64641,25.99945 c 0.60196,-0.19826 1.21211,-0.36054 1.83762,-0.45269 0.80519,-0.12569 1.60449,-0.19017 2.39882,-0.19017 1.03169,0 2.00349,0.19051 2.90059,0.58291 0.89412,0.39112 1.68898,0.96918 2.3549,1.72599 0.46319,0.52643 0.75572,1.23513 1.0728,1.91617 l 0.0816,-4.44056 h 7.36183 c -0.0206,-0.60259 -0.0367,-1.20079 -0.0589,-1.80506 l -3.622,0.29507 -5.10408,0.41652 -0.093,-3.68453 6.15312,-0.755 -0.18242,-7.82432 -6.13296,0.50022 -0.0527,-3.18223 8.68061,-1.26452 c -0.0188,-1.58321 -0.0567,-3.14791 -0.11369,-4.69429 -0.0573,-1.54635 -0.10896,-3.10971 -0.15503,-4.69067 z m -21.28035,3.00033 -9.63094,0.78549 c 0.17368,1.28397 0.32736,2.57839 0.46147,3.88245 0.14639,1.28618 0.27325,2.58238 0.37982,3.88865 0.0287,0.35174 0.0655,0.88795 0.11059,1.6092 0.0452,0.72124 0.0786,1.55313 0.10025,2.49546 0.0358,0.94123 0.0565,1.9593 0.0625,3.05459 0.0202,1.09419 0.013,2.19107 -0.0217,3.28972 -0.0347,1.09865 -0.10001,2.15766 -0.19638,3.17707 -0.0965,1.0194 -0.23669,1.92401 -0.42064,2.71456 -0.17037,0.7894 -0.39448,1.43182 -0.67179,1.9265 -0.27864,0.47785 -0.61704,0.73279 -1.01493,0.76533 -0.34295,0.028 -0.66026,-0.13996 -0.9524,-0.50385 -0.27837,-0.36509 -0.53158,-0.84157 -0.75912,-1.42989 -0.22765,-0.58837 -0.42537,-1.23855 -0.59377,-1.94975 -0.15612,-0.72904 -0.28967,-1.4345 -0.40049,-2.11666 -0.11221,-0.69892 -0.20485,-1.32386 -0.2775,-1.87431 -0.0601,-0.56831 -0.10179,-0.9948 -0.12506,-1.27951 -0.21864,-2.67955 -0.30531,-5.3528 -0.26045,-8.02018 0.0571,-2.68522 0.16345,-5.3575 0.31936,-8.01708 l -9.66762,0.33331 c -0.1669,2.35699 -0.251,4.71574 -0.25167,7.07606 -0.002,2.34354 0.0929,4.688 0.28422,7.03264 0.12435,1.52402 0.30881,3.11036 0.55397,4.7594 0.25739,1.63117 0.60191,3.2302 1.03353,4.79661 0.43028,1.5496 0.97091,3.01414 1.62213,4.39404 0.64984,1.36311 1.43728,2.54661 2.36161,3.55018 0.92298,0.98679 1.99239,1.74251 3.20911,2.26704 1.2318,0.54027 2.64391,0.74544 4.2354,0.61547 1.35823,-0.11079 2.56957,-0.49641 3.6344,-1.15652 1.0662,-0.64334 2.00538,-1.48705 2.81792,-2.53111 0.82485,-1.06198 1.52742,-2.27419 2.10684,-3.63647 0.59176,-1.38012 1.0868,-2.84526 1.48518,-4.39508 0.39837,-1.54983 0.70269,-3.1509 0.91313,-4.80333 0.22279,-1.67038 0.37898,-3.31018 0.4687,-4.91908 0.0899,-1.60892 0.12185,-3.16234 0.0961,-4.6607 -0.0256,-1.49835 -0.0891,-2.8674 -0.19017,-4.10672 h -5.2e-4 c -0.19402,-2.37811 -0.46785,-4.71578 -0.82113,-7.01353 z m -34.20929,0.66715 c -0.67772,-0.0123 -1.31172,0.006 -1.90169,0.0537 -1.57774,0.12874 -3.0383,0.50932 -4.38164,1.14153 -1.34332,0.6322 -2.55975,1.46451 -3.64939,2.49752 -1.08965,1.03301 -2.04094,2.24021 -2.85358,3.62148 -0.81401,1.36456 -1.48005,2.85214 -1.99781,4.46226 -0.50539,1.59227 -0.85777,3.28146 -1.0573,5.06791 -0.20093,1.76973 -0.22696,3.56748 -0.078,5.39295 0.19539,2.39488 0.72071,4.60264 1.57613,6.62337 0.85542,2.0207 1.94999,3.75177 3.28301,5.194 1.34536,1.42442 2.89052,2.50425 4.63537,3.23857 1.74485,0.73429 3.61189,1.02008 5.60121,0.85783 1.02899,-0.084 2.10224,-0.29777 3.22048,-0.64183 1.11959,-0.32739 2.20159,-0.77826 3.24579,-1.35237 1.04424,-0.57411 2.00994,-1.26845 2.89647,-2.08256 0.88653,-0.8141 1.61187,-1.74154 2.17609,-2.78226 l -1.62419,-16.86254 c -2.0635,0.2693 -4.1149,0.52105 -6.15363,0.755 -2.04016,0.21682 -4.07853,0.45009 -6.1159,0.70073 l 0.36742,7.55664 4.9475,-0.30179 0.0775,1.96577 c -0.3651,0.43435 -0.82213,0.75861 -1.37097,0.97204 -0.53513,0.21208 -1.06308,0.33922 -1.5844,0.38189 -0.7683,0.0626 -1.46326,-0.0743 -2.08463,-0.41135 -0.60767,-0.33816 -1.13597,-0.80083 -1.5844,-1.38803 -0.43616,-0.60506 -0.78268,-1.30212 -1.04025,-2.09031 -0.25896,-0.80497 -0.42402,-1.64269 -0.49506,-2.51354 -0.11342,-1.39009 -0.009,-2.65467 0.31213,-3.79357 0.32141,-1.1389 0.80029,-2.1222 1.43712,-2.94969 0.65057,-0.82855 1.43277,-1.48244 2.34663,-1.96164 0.92621,-0.49708 1.93842,-0.79006 3.03599,-0.87953 0.782,-0.0623 1.58306,-0.0598 2.40347,0.008 0.83273,0.0501 1.64731,0.22002 2.44429,0.50902 l -0.2067,-9.64334 c -0.55141,-0.32589 -1.15244,-0.58885 -1.80403,-0.78859 -0.65159,-0.19991 -1.31926,-0.3395 -2.00246,-0.41858 -0.67084,-0.0951 -1.34419,-0.14115 -2.02055,-0.13849 z m -30.52371,2.94504 -11.07168,0.90278 -4.15892,18.09192 -5.55522,-16.28789 -10.53682,1.36581 2.42104,34.75085 9.47901,-1.12758 -1.28674,-16.2817 4.39508,13.75213 3.62148,-0.29507 2.96054,-16.02124 1.5043,19.45049 9.3431,-1.26814 z m 12.71757,0.22686 -10.89081,1.5968 2.77916,34.06407 8.63926,-1.26091 z m 141.15417,1.17874 c 0.63109,-0.0514 1.20038,0.0706 1.70791,0.36638 0.51985,0.27792 0.96645,0.67124 1.33945,1.18029 0.37157,0.49233 0.66759,1.07502 0.88832,1.74821 0.23296,0.65536 0.3789,1.34333 0.4377,2.06344 0.0601,0.7369 0.0223,1.45671 -0.11369,2.15905 -0.13605,0.7023 -0.36035,1.33562 -0.67334,1.90065 -0.31436,0.54826 -0.71952,1.003 -1.21492,1.36375 -0.48301,0.34266 -1.04705,0.54044 -1.69188,0.59324 -0.64482,0.0526 -1.2282,-0.0772 -1.7508,-0.38861 -0.50887,-0.31253 -0.95132,-0.74006 -1.32705,-1.2826 -0.37566,-0.54254 -0.67449,-1.15854 -0.89659,-1.84847 -0.22209,-0.68997 -0.36169,-1.38691 -0.41909,-2.09031 -0.0601,-0.73689 -0.0209,-1.43959 0.11782,-2.1084 0.13742,-0.68556 0.36452,-1.28561 0.68161,-1.80041 0.32944,-0.5326 0.73619,-0.96213 1.2206,-1.28829 0.48438,-0.32592 1.04912,-0.51512 1.69395,-0.56792 z m -79.98168,26.49088 -0.14986,2.83239 0.58187,-0.0641 c 0.0574,-0.25006 0.0974,-0.50121 0.10542,-0.76223 v -0.14262 -0.0109 l 0.002,-0.009 c 0.005,-0.33882 -0.0257,-0.65482 -0.0899,-0.95601 l -0.002,-0.009 -0.002,-0.0108 c -0.0525,-0.26699 -0.1327,-0.46962 -0.24391,-0.6475 l -0.009,-0.0129 -0.007,-0.0129 c -0.0481,-0.0818 -0.12612,-0.13001 -0.18552,-0.19431 z"
       sodipodi:nodetypes="cccccsccccccccccccccsscsccscccccccsccscccccccccscccccccccccccccccccccccscccccccsssccccccccccccccccsssccscccscsccccccccscccccccccscccccccssccccsscsscssccccccccccccssccccccccccccccccccccccccccccccccccccccssscccccccccscscccccccccsc" />
    <text
       xml:space="preserve"
       style="font-style:normal;font-variant:normal;font-weight:normal;font-stretch:normal;font-size:22.3339px;line-height:0.9;font-family:'Luckiest Guy';-inkscape-font-specification:'Luckiest Guy';text-align:center;letter-spacing:0px;text-anchor:middle;opacity:0.981233;fill:#ff5050;fill-opacity:1;stroke:#000000;stroke-width:0;stroke-miterlimit:9;stroke-dasharray:none"
       x="-456.5719"
       y="269.90451"
       id="text2-0-7-9"
       transform="scale(0.90510016,1.1048501)"><tspan
         sodipodi:role="line"
         id="tspan2-2-6-7"
         style="fill:#ff5050;fill-opacity:1;stroke:#000000;stroke-width:0;stroke-dasharray:none"
         x="-456.5719"
         y="269.90451">DEVELOPER</tspan></text>
    <g
       id="g333"
       transform="translate(-260.68466,-9.1951813)">
      <rect
         style="opacity:0.981233;fill:#ff5050;fill-opacity:1;stroke:#000000;stroke-width:0.190187;stroke-miterlimit:9;stroke-dasharray:none"
         id="rect188-4-1"
         width="244.51823"
         height="93.343063"
         x="-320.05075"
         y="143.23468" />
      <g
         id="g332"
         transform="translate(4.1337926,0.49340685)"
         style="fill:#000000">
        <path
           id="path170-9-3-4-5-38"
           style="font-size:11.3832px;line-height:0.9;font-family:'Luckiest Guy';-inkscape-font-specification:'Luckiest Guy';text-align:center;letter-spacing:0px;text-anchor:middle;opacity:0.981233;fill:#000000;fill-opacity:1;stroke:none;stroke-width:4;stroke-miterlimit:9;stroke-dasharray:none"
           inkscape:transform-center-x="-76.48287"
           inkscape:transform-center-y="-24.442737"
           d="m -129.88787,164.64093 -22.42757,1.8805 0.72037,11.87732 6.09988,-0.90227 1.52962,19.15748 c 0.22698,-0.0273 0.453,-0.0594 0.68523,-0.0594 1.04715,0 2.02748,0.19941 2.92386,0.61289 h 0.002 c 0.8958,0.41031 1.6831,1.01293 2.33009,1.80144 0.32577,0.38894 0.55074,0.88224 0.77153,1.38027 l 0.21446,-0.0315 c 2.1e-4,-0.0718 0.001,-0.14365 5.2e-4,-0.21549 -0.007,-1.00113 0.009,-2.01127 0.0496,-3.02772 l 0.032,-0.78135 0.61494,-0.22427 c 0.43879,-0.15902 0.87835,-0.29826 1.31827,-0.41807 l -0.31006,-19.57968 6.10816,-0.80202 z m 14.10766,1.04438 c -0.47888,-0.008 -0.96718,0.008 -1.46451,0.0486 -1.23478,0.10075 -2.39088,0.4053 -3.468,0.91467 -1.07714,0.50932 -2.06476,1.18028 -2.96365,2.01228 -0.88516,0.83086 -1.66976,1.79699 -2.35334,2.89802 -0.68359,1.10102 -1.24938,2.29347 -1.69705,3.57756 -0.43398,1.28298 -0.7372,2.63976 -0.91054,4.07003 -0.17482,1.41354 -0.20312,2.84864 -0.0842,4.30568 0.12161,1.49053 0.38969,2.91 0.80357,4.25866 0.42758,1.34756 0.96463,2.60204 1.61179,3.76308 0.65951,1.14319 1.42095,2.17683 2.28358,3.1011 0.28065,0.29072 0.5828,0.54242 0.87954,0.80408 h 8.3199 0.96532 l -0.0305,0.55863 c 0.26054,-0.10048 0.52312,-0.21886 0.78135,-0.29766 0.47986,-0.14644 0.96076,-0.25851 1.4428,-0.33641 0.47672,-0.0839 0.95559,-0.13863 1.43867,-0.16434 0.48481,-0.0332 0.98039,-0.0496 1.48363,-0.0496 0.46914,0 0.93069,0.0511 1.38493,0.14211 0.74996,-0.72939 1.43483,-1.53536 2.01848,-2.45929 0.6973,-1.10212 1.26258,-2.29454 1.69654,-3.57756 0.44769,-1.28407 0.75841,-2.6413 0.93173,-4.07158 0.17206,-1.44703 0.19564,-2.93259 0.0713,-4.45658 h 5.2e-4 c -0.19949,-2.44512 -0.70237,-4.62947 -1.50844,-6.55309 -0.79369,-1.94145 -1.83031,-3.55959 -3.10989,-4.85448 -1.26723,-1.31276 -2.75495,-2.27922 -4.46277,-2.89853 -1.2706,-0.46531 -2.62409,-0.7103 -4.06074,-0.73536 z m -37.23493,1.39888 -10.89133,1.5968 2.18281,26.75651 h 2.86598 l 0.002,-0.0734 h 6.27403 z m -18.99419,0.53795 -10.70167,0.87333 c 0.32577,5.85722 0.6697,11.67932 1.03146,17.46612 0.20378,3.14079 0.41742,6.31572 0.62683,9.47591 h 0.40204 0.9648 l -0.0248,0.47646 3.89795,-0.44235 1.17926,6.15001 1.13843,-6.12418 4.9196,0.39275 0.009,-0.45269 h 5.21415 l -0.0258,-6.31486 c -0.76829,0.0624 -1.52235,0.13189 -2.26188,0.20877 -0.73949,0.0766 -1.49304,0.14663 -2.26136,0.20929 -0.64481,0.0528 -1.283,0.1046 -1.91409,0.15607 -0.63111,0.0515 -1.27015,0.0868 -1.91771,0.10593 -0.17976,-3.72802 -0.27487,-7.4293 -0.28474,-11.10371 -0.0111,-3.69123 -0.008,-7.38344 0.008,-11.07685 z m -11.94501,1.12655 -18.97352,1.54771 1.64641,25.99945 c 0.60196,-0.19826 1.21211,-0.36054 1.83762,-0.45269 0.80519,-0.12569 1.60449,-0.19017 2.39882,-0.19017 1.03169,0 2.00349,0.19051 2.90059,0.58291 0.89412,0.39112 1.68898,0.96918 2.3549,1.72599 0.46319,0.52643 0.75572,1.23513 1.0728,1.91617 l 0.0816,-4.44056 h 7.36183 c -0.0206,-0.60259 -0.0367,-1.20079 -0.0589,-1.80506 l -3.622,0.29507 -5.10408,0.41652 -0.093,-3.68453 6.15312,-0.755 -0.18242,-7.82432 -6.13296,0.50022 -0.0527,-3.18223 8.68061,-1.26452 c -0.0188,-1.58321 -0.0567,-3.14791 -0.11369,-4.69429 -0.0573,-1.54635 -0.10896,-3.10971 -0.15503,-4.69067 z m -21.28035,3.00033 -9.63094,0.78549 c 0.17368,1.28397 0.32736,2.57839 0.46147,3.88245 0.14639,1.28618 0.27325,2.58238 0.37982,3.88865 0.0287,0.35174 0.0655,0.88795 0.11059,1.6092 0.0452,0.72124 0.0786,1.55313 0.10025,2.49546 0.0358,0.94123 0.0565,1.9593 0.0625,3.05459 0.0202,1.09419 0.013,2.19107 -0.0217,3.28972 -0.0347,1.09865 -0.10001,2.15766 -0.19638,3.17707 -0.0965,1.0194 -0.23669,1.92401 -0.42064,2.71456 -0.17037,0.7894 -0.39448,1.43182 -0.67179,1.9265 -0.27864,0.47785 -0.61704,0.73279 -1.01493,0.76533 -0.34295,0.028 -0.66026,-0.13996 -0.9524,-0.50385 -0.27837,-0.36509 -0.53158,-0.84157 -0.75912,-1.42988 -0.22765,-0.58838 -0.42537,-1.23856 -0.59377,-1.94976 -0.15612,-0.72904 -0.28967,-1.4345 -0.40049,-2.11666 -0.11221,-0.69892 -0.20485,-1.32386 -0.2775,-1.87431 -0.0601,-0.56831 -0.10179,-0.9948 -0.12506,-1.27951 -0.21864,-2.67955 -0.30531,-5.3528 -0.26045,-8.02018 0.0571,-2.68522 0.16345,-5.3575 0.31936,-8.01708 l -9.66762,0.33331 c -0.1669,2.35699 -0.251,4.71574 -0.25167,7.07606 -0.002,2.34354 0.0929,4.688 0.28422,7.03264 0.12435,1.52402 0.30881,3.11036 0.55397,4.7594 0.25739,1.63117 0.60191,3.2302 1.03353,4.79661 0.43028,1.5496 0.97091,3.01414 1.62213,4.39404 0.64984,1.36311 1.43728,2.54661 2.36161,3.55018 0.92298,0.98679 1.99239,1.74251 3.20911,2.26704 1.2318,0.54027 2.64391,0.74544 4.2354,0.61547 1.35823,-0.11079 2.56957,-0.49641 3.6344,-1.15652 1.0662,-0.64334 2.00538,-1.48705 2.81792,-2.53111 0.82485,-1.06198 1.52742,-2.27419 2.10684,-3.63647 0.59176,-1.38012 1.0868,-2.84526 1.48518,-4.39508 0.39837,-1.54983 0.70269,-3.1509 0.91313,-4.80333 0.22279,-1.67038 0.37898,-3.31018 0.4687,-4.91908 0.0899,-1.60892 0.12185,-3.16234 0.0961,-4.6607 -0.0256,-1.49835 -0.0891,-2.8674 -0.19017,-4.10672 h -5.2e-4 c -0.19402,-2.37811 -0.46785,-4.71578 -0.82113,-7.01353 z m -34.20929,0.66715 c -0.67772,-0.0123 -1.31172,0.006 -1.90169,0.0537 -1.57774,0.12874 -3.0383,0.50932 -4.38164,1.14153 -1.34332,0.6322 -2.55975,1.46452 -3.64939,2.49752 -1.08965,1.03301 -2.04094,2.24021 -2.85358,3.62148 -0.81401,1.36456 -1.48005,2.85214 -1.99781,4.46226 -0.50539,1.59227 -0.85777,3.28146 -1.0573,5.06791 -0.20093,1.76973 -0.22696,3.56748 -0.078,5.39296 0.19539,2.39487 0.72071,4.60263 1.57613,6.62336 0.85542,2.0207 1.94999,3.75177 3.28301,5.194 1.34536,1.42442 2.89052,2.50425 4.63537,3.23857 1.74485,0.73429 3.61189,1.02008 5.60121,0.85783 1.02899,-0.084 2.10224,-0.29777 3.22048,-0.64183 1.11959,-0.32739 2.20159,-0.77826 3.24579,-1.35237 1.04424,-0.57411 2.00994,-1.26845 2.89647,-2.08256 0.88653,-0.8141 1.61187,-1.74154 2.17609,-2.78226 l -1.62419,-16.86254 c -2.0635,0.2693 -4.1149,0.52105 -6.15363,0.755 -2.04016,0.21682 -4.07853,0.45009 -6.1159,0.70073 l 0.36742,7.55664 4.9475,-0.30179 0.0775,1.96577 c -0.3651,0.43435 -0.82213,0.75861 -1.37097,0.97204 -0.53513,0.21208 -1.06308,0.33922 -1.5844,0.38189 -0.7683,0.0626 -1.46326,-0.0743 -2.08463,-0.41135 -0.60767,-0.33816 -1.13597,-0.80083 -1.5844,-1.38803 -0.43616,-0.60506 -0.78268,-1.30212 -1.04025,-2.09031 -0.25896,-0.80497 -0.42402,-1.64269 -0.49506,-2.51354 -0.11342,-1.39008 -0.009,-2.65467 0.31213,-3.79357 0.32141,-1.1389 0.80029,-2.1222 1.43712,-2.94969 0.65057,-0.82855 1.43277,-1.48244 2.34663,-1.96163 0.92621,-0.49709 1.93842,-0.79007 3.03599,-0.87954 0.782,-0.0622 1.58306,-0.0598 2.40347,0.008 0.83273,0.0501 1.64731,0.22002 2.44429,0.50902 l -0.2067,-9.64334 c -0.55141,-0.32589 -1.15244,-0.58885 -1.80403,-0.78859 -0.65159,-0.19991 -1.31926,-0.3395 -2.00246,-0.41857 -0.67084,-0.0951 -1.34419,-0.14116 -2.02055,-0.1385 z m -30.52371,2.94504 -11.07168,0.90278 -4.15892,18.09192 -5.55522,-16.28789 -10.53682,1.36581 2.42104,34.75085 9.47901,-1.12758 -1.28674,-16.2817 4.39508,13.75213 3.62148,-0.29507 2.96054,-16.02124 1.5043,19.45049 9.3431,-1.26814 z m 12.71757,0.22686 -10.89081,1.5968 2.77916,34.06407 8.63926,-1.26091 z m 141.15417,1.17874 c 0.63109,-0.0514 1.20038,0.0706 1.70791,0.36638 0.51985,0.27792 0.96645,0.67124 1.33945,1.18029 0.37157,0.49233 0.66759,1.07502 0.88832,1.74821 0.23296,0.65536 0.3789,1.34333 0.4377,2.06344 0.0601,0.7369 0.0223,1.45671 -0.11369,2.15905 -0.13605,0.7023 -0.36035,1.33562 -0.67334,1.90066 -0.31436,0.54825 -0.71952,1.00299 -1.21492,1.36374 -0.48301,0.34266 -1.04705,0.54044 -1.69188,0.59324 -0.64482,0.0526 -1.2282,-0.0772 -1.7508,-0.38861 -0.50887,-0.31253 -0.95132,-0.74006 -1.32705,-1.2826 -0.37566,-0.54254 -0.67449,-1.15854 -0.89659,-1.84847 -0.22209,-0.68997 -0.36169,-1.38691 -0.41909,-2.09031 -0.0601,-0.73689 -0.0209,-1.43959 0.11782,-2.1084 0.13742,-0.68556 0.36452,-1.28561 0.68161,-1.80041 0.32944,-0.5326 0.73619,-0.96213 1.2206,-1.28829 0.48438,-0.32592 1.04912,-0.51512 1.69395,-0.56792 z m -79.98168,26.49088 -0.14986,2.83239 0.58187,-0.0641 c 0.0574,-0.25006 0.0974,-0.50121 0.10542,-0.76223 v -0.14262 -0.0109 l 0.002,-0.009 c 0.005,-0.33882 -0.0257,-0.65482 -0.0899,-0.95601 l -0.002,-0.009 -0.002,-0.0108 c -0.0525,-0.26699 -0.1327,-0.46962 -0.24391,-0.6475 l -0.009,-0.0129 -0.007,-0.0129 c -0.0481,-0.0818 -0.12612,-0.13001 -0.18552,-0.19431 z"
           sodipodi:nodetypes="cccccsccccccccccccccsscsccscccccccsccscccccccccscccccccccccccccccccccccscccccccsssccccccccccccccccsssccscccscsccccccccscccccccccscccccccssccccsscsscssccccccccccccssccccccccccccccccccccccccccccccccccccccssscccccccccscscccccccccsc" />
        <text
           xml:space="preserve"
           style="font-style:normal;font-variant:normal;font-weight:normal;font-stretch:normal;font-size:22.3339px;line-height:0.9;font-family:'Luckiest Guy';-inkscape-font-specification:'Luckiest Guy';text-align:center;letter-spacing:0px;text-anchor:middle;opacity:0.981233;fill:#ffffff;fill-opacity:1;stroke:#000000;stroke-width:0;stroke-miterlimit:9;stroke-dasharray:none"
           x="-168.55447"
           y="193.57011"
           id="text2-0-7-2"
           transform="scale(0.90510016,1.1048501)"><tspan
             sodipodi:role="line"
             id="tspan2-2-6-3"
             style="fill:#ffffff;fill-opacity:1;stroke:#000000;stroke-width:0;stroke-dasharray:none"
             x="-168.55447"
             y="193.57011">DEVELOPER</tspan></text>
      </g>
    </g>
  </g>
</svg>
