<?xml version="1.0" encoding="UTF-8" standalone="no"?>
<!-- Created with Inkscape (http://www.inkscape.org/) -->

<svg
   width="198.72981mm"
   height="49.543755mm"
   viewBox="0 0 198.72981 49.543755"
   version="1.1"
   id="svg1"
   inkscape:version="1.2.1 (9c6d41e410, 2022-07-14)"
   sodipodi:docname="logo_bg_black.svg"
   xmlns:inkscape="http://www.inkscape.org/namespaces/inkscape"
   xmlns:sodipodi="http://sodipodi.sourceforge.net/DTD/sodipodi-0.dtd"
   xmlns="http://www.w3.org/2000/svg"
   xmlns:svg="http://www.w3.org/2000/svg">
  <sodipodi:namedview
     id="namedview1"
     pagecolor="#ffffff"
     bordercolor="#000000"
     borderopacity="0.25"
     inkscape:showpageshadow="2"
     inkscape:pageopacity="0.0"
     inkscape:pagecheckerboard="0"
     inkscape:deskcolor="#d1d1d1"
     inkscape:document-units="mm"
     inkscape:zoom="1"
     inkscape:cx="277.5"
     inkscape:cy="-9"
     inkscape:window-width="1920"
     inkscape:window-height="1017"
     inkscape:window-x="-8"
     inkscape:window-y="-8"
     inkscape:window-maximized="1"
     inkscape:current-layer="g331"
     showguides="true"
     showgrid="false" />
  <defs
     id="defs1" />
  <g
     inkscape:label="Capa 1"
     inkscape:groupmode="layer"
     id="layer1"
     transform="translate(557.8412,-62.405905)">
    <g
       id="g331"
       transform="translate(4.1338007,0.49340515)">
      <path
         id="path170-9-3-4-5"
         style="font-size:11.3832px;line-height:0.9;font-family:'Luckiest Guy';-inkscape-font-specification:'Luckiest Guy';text-align:center;letter-spacing:0px;text-anchor:middle;opacity:0.981233;fill:#ff5050;fill-opacity:1;stroke:none;stroke-width:4;stroke-miterlimit:9;stroke-dasharray:none"
         inkscape:transform-center-x="-76.48287"
         inkscape:transform-center-y="-24.442737"
         d="m -390.57254,61.9125 -22.42757,1.880505 0.72037,11.877312 6.09988,-0.902271 1.52962,19.157487 c 0.22698,-0.0273 0.453,-0.05943 0.68523,-0.05943 1.04715,0 2.02748,0.199403 2.92386,0.612883 h 0.002 c 0.8958,0.410319 1.6831,1.012931 2.33009,1.80144 0.32577,0.388943 0.55074,0.882248 0.77153,1.380278 l 0.21446,-0.03152 c 2.1e-4,-0.07185 0.001,-0.143653 5.2e-4,-0.215491 -0.007,-1.001129 0.009,-2.011273 0.0496,-3.027722 l 0.032,-0.781348 0.61494,-0.224275 c 0.43879,-0.159014 0.87835,-0.298256 1.31827,-0.418063 l -0.31006,-19.579683 6.10816,-0.802018 z m 14.10766,1.044381 c -0.47888,-0.0084 -0.96718,0.008 -1.46451,0.04858 -1.23478,0.100746 -2.39088,0.4053 -3.468,0.914672 -1.07714,0.50932 -2.06476,1.180275 -2.96365,2.012281 -0.88516,0.830852 -1.66976,1.796982 -2.35334,2.898014 -0.68359,1.101026 -1.24938,2.293474 -1.69705,3.577559 -0.43398,1.282986 -0.7372,2.639758 -0.91054,4.070036 -0.17482,1.413532 -0.20312,2.848642 -0.0842,4.305681 0.12161,1.490525 0.38969,2.909996 0.80357,4.258654 0.42758,1.347566 0.96463,2.602046 1.61179,3.763078 0.65951,1.143192 1.42095,2.17683 2.28358,3.101103 0.28065,0.290722 0.5828,0.542423 0.87954,0.804085 h 8.3199 0.96532 l -0.0305,0.558622 c 0.26054,-0.10048 0.52312,-0.218856 0.78135,-0.297656 0.47986,-0.14644 0.96076,-0.258514 1.4428,-0.336413 0.47672,-0.08391 0.95559,-0.138632 1.43867,-0.164332 0.48481,-0.0332 0.98039,-0.04961 1.48363,-0.04961 0.46914,0 0.93069,0.05107 1.38493,0.14211 0.74996,-0.729386 1.43483,-1.535351 2.01848,-2.459281 0.6973,-1.102119 1.26258,-2.294541 1.69654,-3.57756 0.44769,-1.284078 0.75841,-2.641307 0.93173,-4.071586 0.17206,-1.447025 0.19564,-2.932583 0.0713,-4.456575 h 5.2e-4 c -0.19949,-2.445118 -0.70237,-4.62947 -1.50844,-6.553089 -0.79369,-1.941458 -1.83031,-3.559592 -3.10989,-4.854484 -1.26723,-1.312758 -2.75495,-2.279218 -4.46277,-2.898531 -1.2706,-0.465309 -2.62409,-0.710299 -4.06074,-0.735355 z m -37.23493,1.398881 -10.89133,1.596801 2.18281,26.756507 h 2.86598 l 0.002,-0.07338 h 6.27403 z m -18.99419,0.537951 -10.70167,0.873332 c 0.32577,5.857214 0.6697,11.67931 1.03146,17.466117 0.20378,3.14079 0.41742,6.315718 0.62683,9.475908 h 0.40204 0.9648 l -0.0248,0.476457 3.89795,-0.442351 1.17926,6.150012 1.13843,-6.124174 4.9196,0.392741 0.009,-0.452685 h 5.21415 l -0.0258,-6.31486 c -0.76829,0.06239 -1.52235,0.131886 -2.26188,0.208773 -0.73949,0.07661 -1.49304,0.146623 -2.26136,0.209289 -0.64481,0.05278 -1.283,0.104596 -1.91409,0.156063 -0.63111,0.05147 -1.27015,0.0868 -1.91771,0.105937 -0.17976,-3.728023 -0.27487,-7.429299 -0.28474,-11.103715 -0.0111,-3.691223 -0.008,-7.383441 0.008,-11.076844 z m -11.94501,1.126547 -18.97352,1.547709 1.64641,25.999446 c 0.60196,-0.198257 1.21211,-0.360532 1.83762,-0.452685 0.80519,-0.12569 1.60449,-0.190169 2.39882,-0.190169 1.03169,0 2.00349,0.19051 2.90059,0.58291 0.89412,0.391119 1.68898,0.969183 2.3549,1.725993 0.46319,0.526429 0.75572,1.235122 1.0728,1.916162 l 0.0816,-4.440556 h 7.36183 c -0.0206,-0.602591 -0.0367,-1.200795 -0.0589,-1.805058 l -3.622,0.295072 -5.10408,0.416513 -0.093,-3.68453 6.15312,-0.754993 -0.18242,-7.824328 -6.13296,0.500227 -0.0527,-3.182234 8.68061,-1.264523 c -0.0188,-1.583205 -0.0567,-3.147908 -0.11369,-4.694287 -0.0573,-1.546351 -0.10896,-3.109711 -0.15503,-4.690669 z m -21.28035,3.000333 -9.63094,0.785482 c 0.17368,1.283972 0.32736,2.578392 0.46147,3.88245 0.14639,1.286186 0.27325,2.58238 0.37982,3.888652 0.0287,0.35174 0.0655,0.887958 0.11059,1.609204 0.0452,0.721239 0.0786,1.553129 0.10025,2.495455 0.0358,0.941232 0.0565,1.959308 0.0625,3.054594 0.0202,1.094185 0.013,2.191069 -0.0217,3.289722 -0.0347,1.098645 -0.10001,2.157661 -0.19638,3.177067 -0.0965,1.019405 -0.23669,1.92401 -0.42064,2.714563 -0.17037,0.789399 -0.39448,1.431817 -0.67179,1.926497 -0.27864,0.477853 -0.61704,0.732795 -1.01493,0.765328 -0.34295,0.02797 -0.66026,-0.139952 -0.9524,-0.503845 -0.27837,-0.365093 -0.53158,-0.841574 -0.75912,-1.429887 -0.22765,-0.588373 -0.42537,-1.238553 -0.59377,-1.949752 -0.15612,-0.729039 -0.28967,-1.434501 -0.40049,-2.116667 -0.11221,-0.698912 -0.20485,-1.323858 -0.2775,-1.874304 -0.0601,-0.568313 -0.10179,-0.994802 -0.12506,-1.279508 -0.21864,-2.679551 -0.30531,-5.352805 -0.26045,-8.020183 0.0571,-2.685224 0.16345,-5.357504 0.31936,-8.017081 l -9.66762,0.333313 c -0.1669,2.356984 -0.251,4.715736 -0.25167,7.076054 -0.002,2.343544 0.0929,4.688001 0.28422,7.032645 0.12435,1.524019 0.30881,3.110355 0.55397,4.7594 0.25739,1.631171 0.60191,3.230201 1.03353,4.796606 0.43028,1.549599 0.97091,3.014142 1.62213,4.394047 0.64984,1.363105 1.43728,2.546605 2.36161,3.550175 0.92298,0.98679 1.99239,1.74251 3.20911,2.26704 1.2318,0.54027 2.64391,0.74544 4.2354,0.61547 1.35823,-0.11079 2.56957,-0.49641 3.6344,-1.15652 1.0662,-0.64334 2.00538,-1.48705 2.81792,-2.53111 0.82485,-1.06198 1.52742,-2.27419 2.10684,-3.636473 0.59176,-1.380119 1.0868,-2.845256 1.48518,-4.395081 0.39837,-1.549825 0.70269,-3.150893 0.91313,-4.803324 0.22279,-1.670385 0.37898,-3.310181 0.4687,-4.91908 0.0899,-1.608925 0.12185,-3.162345 0.0961,-4.660697 -0.0256,-1.498359 -0.0891,-2.867408 -0.19017,-4.106726 h -5.2e-4 c -0.19402,-2.378105 -0.46785,-4.715781 -0.82113,-7.013526 z m -34.20929,0.667143 c -0.67772,-0.01227 -1.31172,0.0056 -1.90169,0.05374 -1.57774,0.12874 -3.0383,0.509327 -4.38164,1.141533 -1.34332,0.632199 -2.55975,1.464516 -3.64939,2.497522 -1.08965,1.033005 -2.04094,2.240212 -2.85358,3.621484 -0.81401,1.364559 -1.48005,2.852135 -1.99781,4.46226 -0.50539,1.592265 -0.85777,3.281456 -1.0573,5.067908 -0.20093,1.769731 -0.22696,3.567481 -0.078,5.392952 0.19539,2.394878 0.72071,4.602637 1.57613,6.623369 0.85542,2.020696 1.94999,3.751766 3.28301,5.193996 1.34536,1.42442 2.89052,2.50425 4.63537,3.23857 1.74485,0.73429 3.61189,1.02008 5.60121,0.85783 1.02899,-0.084 2.10224,-0.29777 3.22048,-0.64183 1.11959,-0.32739 2.20159,-0.77826 3.24579,-1.35237 1.04424,-0.57411 2.00994,-1.26845 2.89647,-2.08256 0.88653,-0.8141 1.61187,-1.74154 2.17609,-2.78226 l -1.62419,-16.862537 c -2.0635,0.2693 -4.1149,0.521046 -6.15363,0.754993 -2.04016,0.21682 -4.07853,0.450099 -6.1159,0.700732 l 0.36742,7.556645 4.9475,-0.30179 0.0775,1.965771 c -0.3651,0.434346 -0.82213,0.758607 -1.37097,0.972034 -0.53513,0.21208 -1.06308,0.339222 -1.5844,0.381889 -0.7683,0.06263 -1.46326,-0.07429 -2.08463,-0.411345 -0.60767,-0.338166 -1.13597,-0.800836 -1.5844,-1.388029 -0.43616,-0.605066 -0.78268,-1.302119 -1.04025,-2.090311 -0.25896,-0.804973 -0.42402,-1.64269 -0.49506,-2.513542 -0.11342,-1.390085 -0.009,-2.654668 0.31213,-3.793567 0.32141,-1.138899 0.80029,-2.122205 1.43712,-2.949691 0.65057,-0.828552 1.43277,-1.482438 2.34663,-1.961637 0.92621,-0.497086 1.93842,-0.79006 3.03599,-0.879533 0.782,-0.06225 1.58306,-0.05983 2.40347,0.0078 0.83273,0.05011 1.64731,0.220014 2.44429,0.509013 l -0.2067,-9.643339 c -0.55141,-0.325886 -1.15244,-0.588842 -1.80403,-0.788582 -0.65159,-0.199913 -1.31926,-0.339506 -2.00246,-0.418579 -0.67084,-0.09515 -1.34419,-0.14116 -2.02055,-0.138493 z m -30.52371,2.94504 -11.07168,0.902787 -4.15892,18.091919 -5.55522,-16.287895 -10.53682,1.365809 2.42104,34.750854 9.47901,-1.12758 -1.28674,-16.281697 4.39508,13.752127 3.62148,-0.29507 2.96054,-16.021242 1.5043,19.450492 9.3431,-1.26814 z m 12.71757,0.226859 -10.89081,1.596802 2.77916,34.064073 8.63926,-1.26091 z m 141.15417,1.17874 c 0.63109,-0.05141 1.20038,0.07063 1.70791,0.366386 0.51985,0.277919 0.96645,0.671243 1.33945,1.180289 0.37157,0.492327 0.66759,1.075022 0.88832,1.748214 0.23296,0.655353 0.3789,1.343321 0.4377,2.06344 0.0601,0.736893 0.0223,1.456709 -0.11369,2.159041 -0.13605,0.702306 -0.36035,1.335627 -0.67334,1.90066 -0.31436,0.548252 -0.71952,1.002994 -1.21492,1.363741 -0.48301,0.342666 -1.04705,0.540445 -1.69188,0.593245 -0.64482,0.05256 -1.2282,-0.0772 -1.7508,-0.388607 -0.50887,-0.312533 -0.95132,-0.740069 -1.32705,-1.282609 -0.37566,-0.542539 -0.67449,-1.158533 -0.89659,-1.848466 -0.22209,-0.689966 -0.36169,-1.386905 -0.41909,-2.090311 -0.0601,-0.736893 -0.0209,-1.439586 0.11782,-2.108399 0.13742,-0.685559 0.36452,-1.285614 0.68161,-1.800407 0.32944,-0.532606 0.73619,-0.962133 1.2206,-1.288293 0.48438,-0.32592 1.04912,-0.515124 1.69395,-0.567924 z m -79.98168,26.490885 -0.14986,2.83239 0.58187,-0.0641 c 0.0574,-0.25006 0.0974,-0.50121 0.10542,-0.76223 v -0.14262 -0.0109 l 0.002,-0.009 c 0.005,-0.33882 -0.0257,-0.65482 -0.0899,-0.95601 l -0.002,-0.009 -0.002,-0.0108 c -0.0525,-0.26699 -0.1327,-0.46962 -0.24391,-0.6475 l -0.009,-0.0129 -0.007,-0.0129 c -0.0481,-0.0818 -0.12612,-0.13001 -0.18552,-0.19431 z"
         sodipodi:nodetypes="cccccsccccccccccccccsscsccscccccccsccscccccccccscccccccccccccccccccccccscccccccsssccccccccccccccccsssccscccscsccccccccscccccccccscccccccssccccsscsscssccccccccccccssccccccccccccccccccccccccccccccccccccccssscccccccccscscccccccccsc" />
      <g
         aria-label="DEVELOPER"
         transform="scale(0.90510016,1.1048501)"
         id="text2-0-7"
         style="font-size:22.3339px;line-height:0.9;font-family:'Luckiest Guy';-inkscape-font-specification:'Luckiest Guy';text-align:center;letter-spacing:0px;text-anchor:middle;opacity:0.981233;fill:#ffffff;stroke:#000000;stroke-width:0;stroke-miterlimit:9">
        <path
           id="path308"
           d="m -401.78411,90.077955 q 0,0.850607 -0.15267,1.548542 -0.14177,0.687029 -0.45802,1.265006 -0.31625,0.577977 -0.81789,1.068712 -0.50164,0.490735 -1.21048,0.937849 l 2.59544,4.623815 -4.90735,0.959661 -1.6794,-4.645627 -1.35225,0.04362 -0.1963,4.536577 h -4.68924 q 0.0545,-2.486394 0.0981,-4.950975 0.0545,-2.464581 0.11996,-4.950972 0.0218,-1.254101 0.0436,-2.486392 0.0218,-1.23229 0.0872,-2.486391 0.76337,-0.283536 1.50492,-0.468925 0.74156,-0.185388 1.48312,-0.283535 0.75246,-0.109053 1.51582,-0.141768 0.77427,-0.04362 1.58126,-0.04362 1.24319,0 2.39915,0.348967 1.16686,0.338062 2.06109,1.025091 0.89422,0.687029 1.42858,1.71212 0.54526,1.025092 0.54526,2.388245 z m -4.88554,0.348967 q 0,-0.45802 -0.13086,-0.839702 -0.11996,-0.381683 -0.37078,-0.654314 -0.23991,-0.283536 -0.61069,-0.436209 -0.35987,-0.163578 -0.85061,-0.163578 -0.2181,0 -0.4253,0.03272 -0.2072,0.02181 -0.4035,0.07634 l -0.17448,4.056744 h 0.26173 q 0.46892,0 0.94875,-0.119958 0.49074,-0.119957 0.87242,-0.370778 0.39259,-0.25082 0.6325,-0.643408 0.25082,-0.392588 0.25082,-0.937849 z m -8.26616,-5.561665 q -0.0654,1.025091 -0.11996,2.028372 -0.0545,1.003281 -0.14177,2.028372 l -4.62381,0.239915 -0.10906,1.374058 h 3.24976 l -0.23991,3.38062 -3.27157,0.109052 -0.10905,1.592163 h 2.70449 1.91932 q -0.0654,1.199575 -0.14177,2.388244 -0.0654,1.177764 -0.11995,2.366437 l -9.40031,0.2181 0.34897,-15.725333 z m -10.92704,5.234508 q 0,1.057807 -0.31625,1.875699 -0.31625,0.817892 -0.87242,1.428584 -0.54526,0.610693 -1.28681,1.035997 -0.74156,0.425303 -1.59217,0.697934 -0.8397,0.261725 -1.74483,0.392588 -0.90514,0.119958 -1.77755,0.130863 v 5.08183 h -5.08184 q 0,-2.497292 0.0109,-4.972778 0.0109,-2.475486 0.0327,-4.994593 0.0218,-1.330437 0.0109,-2.660875 -0.0109,-1.330437 0.0545,-2.682685 1.39587,-0.414399 2.79174,-0.621598 1.39587,-0.207199 2.87898,-0.207199 0.8397,0 1.6794,0.141768 0.83971,0.130862 1.60307,0.425304 0.77427,0.294441 1.42859,0.741555 0.66522,0.436209 1.14505,1.046901 0.47983,0.610693 0.75246,1.395869 0.28353,0.774271 0.28353,1.744836 z m -4.84192,0.370778 q 0,-0.70884 -0.43621,-1.101428 -0.4253,-0.403493 -1.11233,-0.403493 -0.22901,0 -0.47983,0.04362 -0.23991,0.03271 -0.45802,0.08724 l -0.13086,3.184326 q 0.15267,0.02181 0.29444,0.02181 0.14177,0 0.29444,0 0.39259,0 0.75246,-0.130863 0.37078,-0.130863 0.65431,-0.370778 0.28354,-0.25082 0.44712,-0.577977 0.17448,-0.338062 0.17448,-0.75246 z m -8.62603,2.42096 q 0,0.992375 -0.22901,1.919319 -0.22901,0.916039 -0.66522,1.723026 -0.4253,0.806986 -1.0469,1.48311 -0.61069,0.665219 -1.38496,1.145049 -0.76337,0.47983 -1.6685,0.75246 -0.90514,0.261723 -1.91932,0.261723 -0.98147,0 -1.8757,-0.250817 -0.88332,-0.25082 -1.65759,-0.697935 -0.77428,-0.458019 -1.40678,-1.090522 -0.6216,-0.643408 -1.06871,-1.417679 -0.43621,-0.785177 -0.68703,-1.679405 -0.23991,-0.894228 -0.23991,-1.864793 0,-0.948755 0.22901,-1.853889 0.22901,-0.916039 0.65431,-1.723025 0.43621,-0.806987 1.0469,-1.483111 0.61069,-0.676124 1.36315,-1.166859 0.76337,-0.490735 1.64669,-0.763366 0.88333,-0.27263 1.8648,-0.27263 1.58125,0 2.87898,0.490735 1.30862,0.490735 2.22466,1.406774 0.92695,0.905134 1.42859,2.202855 0.51254,1.286817 0.51254,2.87898 z m -4.84192,0.283536 q 0,-0.468925 -0.14177,-0.905134 -0.13086,-0.447114 -0.39258,-0.785176 -0.26173,-0.348967 -0.65432,-0.556167 -0.38168,-0.218104 -0.88332,-0.218104 -0.51255,0 -0.91604,0.185389 -0.40349,0.185388 -0.69793,0.512545 -0.28354,0.316252 -0.43621,0.752461 -0.15268,0.425303 -0.15268,0.905133 0,0.45802 0.13087,0.916039 0.13086,0.45802 0.39258,0.828797 0.26173,0.370778 0.64341,0.599788 0.39259,0.229009 0.90514,0.229009 0.51254,0 0.91603,-0.196294 0.4144,-0.207199 0.69794,-0.545261 0.28354,-0.348967 0.43621,-0.796081 0.15267,-0.447115 0.15267,-0.926944 z m -9.14948,1.199574 -0.45802,4.84192 -9.1822,0.719745 q 0.0654,-3.805924 0.14177,-7.568226 0.0872,-3.762303 0.20719,-7.568226 h 5.67072 q -0.25082,2.388244 -0.47983,4.776488 -0.22901,2.377339 -0.32716,4.798299 0.51255,0.02181 1.01419,0.02181 0.50164,0 1.01419,0 0.61069,0 1.19957,-0.0109 0.58888,-0.01091 1.19958,-0.01091 z m -9.95647,-9.509356 q -0.0654,1.025091 -0.11996,2.028372 -0.0545,1.003281 -0.14177,2.028372 l -4.62381,0.239915 -0.10906,1.374058 h 3.24976 l -0.23991,3.38062 -3.27157,0.109052 -0.10905,1.592163 h 2.70449 1.91932 q -0.0654,1.199575 -0.14177,2.388244 -0.0654,1.177764 -0.11995,2.366437 l -9.40031,0.2181 0.34897,-15.725333 z m -10.67622,0.436209 -3.99131,15.180074 -5.40899,0.30535 -4.90735,-15.332751 5.16907,-0.47983 2.09381,8.942285 2.02837,-8.942285 z m -13.70787,-0.436209 q -0.0654,1.025091 -0.11995,2.028372 -0.0545,1.003281 -0.14177,2.028372 l -4.62382,0.239915 -0.10905,1.374058 h 3.24976 l -0.23992,3.38062 -3.27156,0.109052 -0.10906,1.592163 h 2.7045 1.91932 q -0.0654,1.199575 -0.14177,2.388244 -0.0654,1.177764 -0.11996,2.366437 l -9.4003,0.2181 0.34897,-15.725333 z m -10.98156,7.066586 q 0,1.526731 -0.39259,2.759022 -0.39258,1.221385 -1.10142,2.181045 -0.69794,0.948754 -1.6685,1.635783 -0.97057,0.68703 -2.12652,1.134144 -1.15596,0.436213 -2.46458,0.654313 -1.29772,0.2072 -2.67178,0.2072 -0.51255,0 -1.00328,-0.0218 -0.49074,-0.0327 -1.00328,-0.0872 l 0.30534,-14.634814 q 1.19958,-0.381683 2.46458,-0.534356 1.27591,-0.163579 2.53002,-0.163579 1.55944,0 2.86807,0.468925 1.30863,0.468925 2.25738,1.352248 0.94876,0.883323 1.47221,2.159234 0.53435,1.275912 0.53435,2.889885 z m -4.47114,0.697934 q 0.0109,-0.588882 -0.13086,-1.134143 -0.13087,-0.545261 -0.44712,-0.95966 -0.30534,-0.425304 -0.78517,-0.676124 -0.47983,-0.261725 -1.14505,-0.283536 l -0.43621,6.76124 q 0.65431,-0.09815 1.18867,-0.425304 0.53435,-0.338062 0.91604,-0.817892 0.39259,-0.490735 0.59979,-1.079617 0.2181,-0.599788 0.23991,-1.232291 z" />
      </g>
    </g>
  </g>
</svg>
