<?xml version="1.0" encoding="UTF-8" standalone="no"?>
<!-- Created with Inkscape (http://www.inkscape.org/) -->

<svg
   width="37.361542mm"
   height="52.749241mm"
   viewBox="0 0 37.361542 52.749241"
   version="1.1"
   id="svg1"
   inkscape:version="1.3 (0e150ed6c4, 2023-07-21)"
   sodipodi:docname="haciendoLogo.svg"
   xmlns:inkscape="http://www.inkscape.org/namespaces/inkscape"
   xmlns:sodipodi="http://sodipodi.sourceforge.net/DTD/sodipodi-0.dtd"
   xmlns="http://www.w3.org/2000/svg"
   xmlns:svg="http://www.w3.org/2000/svg">
  <sodipodi:namedview
     id="namedview1"
     pagecolor="#ffffff"
     bordercolor="#000000"
     borderopacity="0.25"
     inkscape:showpageshadow="2"
     inkscape:pageopacity="0.0"
     inkscape:pagecheckerboard="0"
     inkscape:deskcolor="#d1d1d1"
     inkscape:document-units="mm"
     inkscape:zoom="1"
     inkscape:cx="-685"
     inkscape:cy="1090.5"
     inkscape:window-width="3440"
     inkscape:window-height="1377"
     inkscape:window-x="1432"
     inkscape:window-y="921"
     inkscape:window-maximized="1"
     inkscape:current-layer="layer1"
     showguides="true" />
  <defs
     id="defs1" />
  <g
     inkscape:label="Capa 1"
     inkscape:groupmode="layer"
     id="layer1"
     transform="translate(441.85417,89.164586)">
    <path
       id="path301-5-6"
       style="color:#000000;-inkscape-font-specification:'Luckiest Guy';opacity:0.981233;fill:#ff5050;fill-opacity:1;stroke:none;stroke-width:0.05;stroke-miterlimit:9;stroke-dasharray:none"
       d="m -408.59262,-88.223045 -10.96833,0.89452 -4.68188,20.36878 -6.26939,-18.38647 -10.4159,1.35134 2.50734,35.99056 9.18394,-1.09192 -1.62884,-20.59977 5.70094,17.83818 3.16622,-0.25786 3.68349,-19.93935 1.81643,23.49004 6.25181,-0.84853 0.98857,-5.31389 1.67949,0.13333 z" />
    <path
       id="text2-3-7-8"
       style="font-size:23.4247px;line-height:0.9;font-family:'Luckiest Guy';-inkscape-font-specification:'Luckiest Guy';text-align:center;letter-spacing:0px;text-anchor:middle;opacity:0.981233;stroke:#000000;stroke-width:0;stroke-miterlimit:9"
       d="m -407.74875,-89.164585 -0.45682,0.03721 -12.06076,0.98237 -4.14032,18.00975 -5.51181,-16.16387 -11.9357,1.54461 2.34249,33.64446 -0.24391,14.23996 c 0.32459,0.0421 0.64265,0.07549 0.95343,0.10076 0.31077,0.0169 0.62833,0.02533 0.95291,0.02533 0.87018,0 1.716,-0.0798 2.53783,-0.23978 0.82874,-0.16839 1.60942,-0.4208 2.34146,-0.75758 0.73205,-0.34518 1.40539,-0.7832 2.02003,-1.31361 0.61465,-0.53041 1.14293,-1.16199 1.58492,-1.89446 0.44889,-0.74089 0.79731,-1.58247 1.04593,-2.52543 0.24862,-0.95135 0.3731,-2.01646 0.3731,-3.19515 0,-1.21399 -0.16351,-2.30177 -0.48472,-3.26802 l -0.9741,-12.33206 2.37039,7.4166 h -0.031 l -0.33176,18.21077 8.92968,-0.2527 c 0.0346,-0.91768 0.0728,-1.83113 0.11421,-2.7404 0.0484,-0.9177 0.093,-1.83961 0.13436,-2.76572 h -1.82315 -2.56883 l 0.10335,-1.84381 3.10782,-0.1261 0.22789,-3.915 h -3.08715 l 0.10387,-1.59112 4.3925,-0.27802 c 0.0468,-0.6699 0.0818,-1.33069 0.11369,-1.98851 l 0.35346,4.56562 0.91003,-0.12351 2.96312,11.28665 5.13819,-0.35399 3.7915,-17.57928 -2.21227,-0.1757 z m -0.84388,0.94155 1.01389,33.62895 -1.67948,-0.13332 -0.98857,5.31389 -1.85777,0.25218 -4.39405,0.59634 -0.44338,-5.73556 -1.37304,-17.75448 -3.17759,17.20154 -0.50591,2.73781 -3.16621,0.25787 -0.95757,-2.99568 -4.74338,-14.84251 1.39682,17.66507 0.23202,2.93471 -3.76876,0.44803 -0.61495,0.07338 -1.0051,0.11938 -3.79512,0.45113 -0.42013,-6.03322 -2.08721,-29.95735 10.4159,-1.35134 6.26938,18.38648 4.68189,-20.36878 z m -10.07794,22.87509 0.81236,10.49445 h -2.75022 z m 8.25635,16.83566 -0.7705,4.14083 -0.75551,-3.93361 z m -22.09788,0.68316 c 0.0824,0.20289 0.14821,0.41957 0.19431,0.65371 0.0897,0.42096 0.13141,0.85899 0.12454,1.31362 v 0.17673 c -0.0138,0.48832 -0.0898,0.96424 -0.2279,1.4273 -0.13122,0.45463 -0.32136,0.8712 -0.56999,1.25006 -0.24171,0.37045 -0.53132,0.68624 -0.86971,0.94722 -0.33841,0.25258 -0.71476,0.41671 -1.12913,0.49248 l 0.31729,-6.00377 z" />
    <path
       style="font-size:11.3832px;line-height:0.9;font-family:'Luckiest Guy';-inkscape-font-specification:'Luckiest Guy';text-align:center;letter-spacing:0px;text-anchor:middle;opacity:0.981233;fill:none;stroke:none;stroke-width:0.870632;stroke-miterlimit:9;stroke-dasharray:none"
       d="m -407.02178,-83.643235 1.18301,39.27743 -9.90961,1.34495 -1.59531,-20.62971 -3.13993,16.99277 -3.84136,0.313 -4.66162,-14.58609 1.3648,17.26898 -10.05367,1.1959 -2.56766,-36.85785 11.17564,-1.44821 5.89179,17.27516 4.41101,-19.18859 z"
       id="path295-6-3" />
  </g>
</svg>
