<?xml version="1.0" encoding="UTF-8" standalone="no"?>
<!-- Created with Inkscape (http://www.inkscape.org/) -->

<svg
   width="24"
   height="32"
   viewBox="0 0 6.3499999 8.4666667"
   version="1.1"
   id="svg1"
   xml:space="preserve"
   inkscape:version="1.3 (0e150ed6c4, 2023-07-21)"
   sodipodi:docname="logo_pixel.svg"
   xmlns:inkscape="http://www.inkscape.org/namespaces/inkscape"
   xmlns:sodipodi="http://sodipodi.sourceforge.net/DTD/sodipodi-0.dtd"
   xmlns="http://www.w3.org/2000/svg"
   xmlns:svg="http://www.w3.org/2000/svg"><sodipodi:namedview
     id="namedview1"
     pagecolor="#ffffff"
     bordercolor="#000000"
     borderopacity="0.25"
     inkscape:showpageshadow="2"
     inkscape:pageopacity="0.0"
     inkscape:pagecheckerboard="0"
     inkscape:deskcolor="#d1d1d1"
     inkscape:document-units="mm"
     showgrid="true"
     inkscape:zoom="23.806246"
     inkscape:cx="19.82673"
     inkscape:cy="20.645842"
     inkscape:window-width="3440"
     inkscape:window-height="1377"
     inkscape:window-x="1432"
     inkscape:window-y="921"
     inkscape:window-maximized="1"
     inkscape:current-layer="layer1"><inkscape:grid
       id="grid1"
       units="px"
       originx="0"
       originy="0"
       spacingx="0.26458333"
       spacingy="0.26458333"
       empcolor="#0099e5"
       empopacity="0.30196078"
       color="#0099e5"
       opacity="0.14901961"
       empspacing="5"
       dotted="false"
       gridanglex="30"
       gridanglez="30"
       visible="true" /></sodipodi:namedview><defs
     id="defs1" /><g
     inkscape:label="Capa 1"
     inkscape:groupmode="layer"
     id="layer1"><g
       id="g1"
       transform="translate(-7.4083334,-0.79374859)"><path
         id="rect33-2-6"
         style="fill:#333333;fill-opacity:1;stroke:none;stroke-width:0.1;stroke-miterlimit:9"
         d="M 9.525,0.79375 V 1.0583333 H 9.7895833 V 1.3229167 1.5875 H 9.525 V 1.8520833 H 9.2604167 8.9958333 8.73125 V 2.1166667 H 8.4666667 V 1.8520833 H 8.2020833 V 1.5875 H 7.9375 7.6729167 V 1.8520833 H 7.9375 V 2.1166667 2.38125 h 0.2645833 v 0.5291667 h -0.79375 V 3.175 H 7.6729167 V 3.4395833 H 7.9375 v 0.2645834 h 0.2645833 v 0.79375 h 0.2645834 v -0.79375 H 8.9958333 V 4.2333333 H 9.2604167 V 3.7041667 H 9.525 V 3.4395833 H 9.7895833 V 3.175 h 2.3812497 v 0.2645833 h 0.264584 V 3.7041667 4.7625 H 12.7 V 3.7041667 h 0.264583 v -0.2645834 -0.0894 h 0.264584 V 2.6458333 2.38125 2.1166667 H 12.964583 V 1.8520833 H 12.7 V 1.5875 H 12.170833 V 1.8520833 H 11.90625 v -0.79375 H 11.1125 V 1.5875 H 10.847917 10.583333 V 1.3229167 1.0583333 H 10.054167 V 0.79375 Z M 8.4666667,4.4979167 V 4.7625 H 8.73125 V 5.0270833 H 8.2020833 7.9375 V 5.2916667 H 8.2020833 V 5.55625 H 8.4666667 V 6.0854167 H 8.2020833 V 6.35 H 7.9375 V 7.14375 7.4083333 H 8.4666667 V 7.6729167 H 8.73125 V 7.9375 H 8.9958333 V 8.4666667 8.73125 8.9958333 H 8.73125 v 0.2645834 h 1.5875 V 8.9958333 8.4666667 H 11.1125 V 8.73125 8.9958333 9.2604167 H 12.7 V 8.9958333 H 12.435417 V 8.4666667 H 12.7 V 8.2020833 h 0.79375 v -0.79375 h -0.264583 v -0.79375 H 13.49375 V 6.0854167 H 12.964583 V 5.55625 H 12.7 V 5.2916667 5.0270833 H 12.435417 12.170833 V 5.2916667 H 9.525 V 5.0270833 H 9.2604167 8.9958333 V 4.7625 4.4979167 Z m 1.3229166,-0.79375 V 3.96875 4.4979167 h 0.2645837 0.264583 v -0.79375 h -0.264583 z m 0.5291667,0.79375 V 4.7625 h 0.264583 V 5.0270833 H 11.1125 V 4.7625 h 0.264583 V 4.4979167 Z m 1.058333,0 h 0.264584 0.264583 v -0.79375 H 11.641667 11.377083 V 3.96875 Z M 8.9958333,6.35 H 9.2604167 V 6.6145833 H 9.525 v 0.79375 H 9.2604167 8.9958333 v -0.79375 z" /><path
         id="rect51-7-7"
         style="fill:#ff9955;fill-opacity:1;stroke:#ff9955;stroke-width:0.03;stroke-miterlimit:9;stroke-dasharray:none"
         d="M 9.7895833,3.175 V 3.4395833 H 9.525 V 3.7041667 H 9.2604167 V 4.2333333 H 8.9958333 V 3.7041667 H 8.4666667 v 0.79375 H 8.9958333 V 5.0270833 H 9.2604167 9.525 V 5.2916667 H 9.7895833 12.170833 V 5.0270833 h 0.264584 V 3.7041667 3.4395833 H 12.170833 V 3.175 Z m 0,0.5291667 H 10.31875 v 0.79375 h 1.058333 v -0.79375 h 0.529167 v 0.79375 H 11.377083 V 4.7625 H 11.1125 V 5.0270833 H 10.583333 V 4.7625 H 10.31875 V 4.4979167 H 9.7895833 Z M 8.9958333,6.35 v 0.2645833 0.79375 H 9.525 v -0.79375 H 9.2604167 V 6.35 Z m 4.2333337,0.2645833 v 0.79375 h 0.529166 v -0.79375 z" /></g><path
       id="rect33-2"
       style="opacity:1;fill:#333333;fill-opacity:1;stroke:none;stroke-width:0.1;stroke-miterlimit:9"
       d="M 2.1166666,3.0618207e-6 V 0.26458306 h 0.264583 v 0.26458 h 0.264584 v 0.26459 0.26458004 h 0.264583 v 0.26458 h 0.264583 v 0.26459 0.26458 h 0.7937501 v -0.26458 h 0.529167 v 0.26458 h 0.264583 0.264584 v 0.26458 h 0.264583 v -0.26458 h 0.264583 v -0.26458 h 0.264584 v -0.26459 H 5.5562497 5.2916667 V 0.79375306 H 4.7624997 V 1.3229131 h -0.264583 v -0.26458 -0.79375004 h -0.79375 v 0.52917 H 3.4395836 V 1.0583331 h -0.264584 v -0.26458004 -0.26459 -0.26458 H 2.6458336 V 3.0618207e-6 Z M 0.26458387,0.79375306 V 1.0583331 h 0.264583 v 0.26458 H 1.0583339 v -0.26458 H 0.79374988 V 0.79375306 H 0.52916687 Z M 1.5874999,1.0583331 v 0.26458 0.26459 0.26458 h 0.7937497 v -0.26458 h -0.264583 v -0.26459 H 1.8520838 v -0.26458 z m -1.32291603,1.32292 v 0.26458 h 0.52916601 v -0.26458 z" /><path
       id="rect13-1"
       style="opacity:1;fill:#1a1a1a;fill-opacity:1;stroke:none;stroke-width:0.1;stroke-miterlimit:9"
       d="m 2.3812496,0.52916306 v 0.26459 H 2.1166666 V 1.0583331 h 0.264583 v 0.52917 h 0.264584 0.264583 v 0.26458 h 0.264583 v -0.52917 h -0.264583 v -0.26458 H 2.6458336 V 0.52916306 Z m 0.79375,1.32292004 v 0.26458 h 0.264584 v -0.26458 z m -1.8520827,-0.79375 v 0.26458 H 0.79374988 0.52916687 v 0.26459 h 0.26458301 v 0.52916 H -1.3048526e-7 v 0.26459 H 0.79374988 v 0.26458 H 1.0583339 v -0.26458 -0.26459 -0.26458 h 0.264583 v 0.26458 h 0.264583 v 0.26459 0.26458 h 0.2645839 v -0.26458 h 0.5291658 v -0.26459 h 0.264584 v -0.26458 H 1.5874999 v -0.52917 -0.26458 z m 2.9104168,0.52917 v 0.52916 h 0.264583 0.529167 v -0.26458 h -0.529167 v -0.26458 z m 0.79375,0.52916 v 0.26459 h 0.264583 v 0.26458 h 0.264583 v -0.0894 h 0.264584 v -0.70435 -0.26458 h -0.264584 v 0.26458 h -0.264583 v 0.26458 z m -1.322917,-0.26458 v 0.26458 h 0.264583 v -0.26458 z" /><path
       id="rect1-8"
       style="opacity:1;fill:#000000;fill-opacity:1;stroke:none;stroke-width:0.1;stroke-miterlimit:9"
       d="M 3.1749996,0.79375306 V 1.0583331 h 0.264583 V 0.79375306 Z M 1.8520828,1.0583331 v 0.26458 h 0.2645828 v 0.26459 h 0.264584 v -0.26459 -0.26458 z m 0.5291668,0.52917 v 0.26458 h 0.264583 v 0.26458 h -0.264583 v 0.26459 h 2.3812501 v 0.26458 h 0.264583 v 0.26458 1.05834 h 0.264583 v -1.05834 h 0.264584 v -0.26458 h -0.264584 v -0.26458 h -0.264583 v -0.26459 h -0.79375 v -0.52916 h -0.264583 v 0.52916 h -0.264584 v -0.26458 H 3.4395826 v 0.26458 h -0.264583 v -0.26458 h -0.264584 v -0.26458 h -0.264583 z m 0,0.79375 H 1.8520828 v 0.26458 H 1.5874999 v -0.52917 h -0.264584 v -0.26458 h -0.264583 v 0.79375 H 0.52916587 v 0.26458 h 0.26458401 v 0.79375 H 1.0583329 v -0.79375 h 0.529167 v 0.52917 h 0.2645829 v -0.52917 h 0.2645828 v -0.26458 h 0.264584 z m -1.3229167,1.32291 v 0.26459 h 0.529167 v -0.26459 z m 3.4395828,-2.64583 v 0.26458 h 0.264584 v -0.26458 z m 0.79375,0 v 0.26458 h 0.264584 v -0.26458 z" /><path
       id="rect51-7"
       style="opacity:1;fill:#ff9955;fill-opacity:1;stroke:none;stroke-width:0.1;stroke-miterlimit:9"
       d="m 2.3812556,2.3812531 v 0.26459 h 2.3812501 v -0.26459 z m 2.3812501,0.26459 v 0.26458 h 0.264583 v -0.26458 z m -3.7041667,0.26458 v 0.79375 h 0.5291667 v 0.52917 h 0.2645832 0.2645837 v -1.32292 H 1.8520889 v 0.52917 H 1.5875057 v -0.52917 z m 1.0583336,1.32292 v 0.2645804 h 0.264583 V 4.2333431 Z" /><path
       id="rect56-2"
       style="opacity:1;fill:#ffb380;fill-opacity:1;stroke:none;stroke-width:0.1;stroke-miterlimit:9"
       d="m 2.1166726,2.6458431 v 1.5875 h 0.264583 V 4.4979235 H 4.7625057 V 4.2333431 h 0.264583 v -1.32292 h -0.264583 v -0.26458 z m 0.264583,0.26458 h 0.529167 v 0.79375 h 1.0583331 v -0.79375 h 0.529167 v 0.79375 h -0.529167 v 0.26458 h -0.264583 v 0.26459 H 3.1750056 v -0.26459 h -0.264583 v -0.26458 H 2.3812556 Z M 1.5875057,5.5562535 v 0.26459 0.79375 h 0.5291669 v -0.79375 H 1.8520889 v -0.26459 z m 4.233333,0.26459 v 0.79375 h 0.529167 v -0.79375 z" /><path
       id="rect57-9"
       style="opacity:1;fill:#1a1a1a;fill-opacity:1;stroke:none;stroke-width:0.1;stroke-miterlimit:9"
       d="m 2.6458326,2.9104131 v 0.26459 h -0.264583 v 0.52916 h 0.264583 0.264583 v -0.79375 z m 1.5875001,0 v 0.26459 h -0.264583 v 0.52916 h 0.264583 0.264583 v -0.79375 z" /><rect
       style="opacity:1;fill:#cccccc;fill-opacity:1;stroke:none;stroke-width:0.1;stroke-miterlimit:9"
       id="rect60-5"
       width="0.26458332"
       height="0.26458332"
       x="2.3812551"
       y="2.9104111" /><rect
       style="opacity:1;fill:#cccccc;fill-opacity:1;stroke:none;stroke-width:0.1;stroke-miterlimit:9"
       id="rect61-4"
       width="0.26458332"
       height="0.26458332"
       x="3.968749"
       y="2.9104111" /><path
       id="rect62-6"
       style="opacity:1;fill:#ff2a2a;fill-opacity:1;stroke:none;stroke-width:0.1;stroke-miterlimit:9"
       d="m 2.9104166,3.7041631 v 0.26459 h 0.264583 v 0.26458 h 0.5291671 v -0.26458 h 0.264583 v -0.26459 z" /><path
       id="rect64"
       style="opacity:1;fill:#1a1a1a;fill-opacity:1;stroke:none;stroke-width:0.1;stroke-miterlimit:9"
       d="m 1.3229149,3.9687631 v 0.26459 0.2645804 h 0.5291669 v 0.26458 h 0.2645828 0.79375 v 0.52917 h 0.264583 v -0.52917 h 1.0583341 v 0.52917 h 0.264583 v -0.52917 h 0.264583 v -0.26458 H 2.1166646 V 4.2333531 H 1.8520818 1.5874979 v -0.26459 z m 3.4395828,0.5291704 h 0.264584 V 4.2333531 h -0.264584 z m -3.1749998,0.79375 v 0.26458 h 0.2645839 v -0.26458 z m 0,0.26458 h -0.264583 v 0.26459 h 0.264583 z m -1.05833303,0.79375 v 0.26459 H 1.0583319 v -0.26459 z m 0.52916703,0.26459 v 0.26458 h 0.264583 v -0.26458 z m 0.264583,0.26458 v 0.26458 h 0.264583 v 0.52917 h 0.2645839 0.7937498 v 0.52917 h 0.264583 v -0.52917 h 1.8520831 v 0.52917 h 0.264584 v -0.52917 h 0.264583 v -0.26458 H 1.8520818 v -0.26459 -0.26458 -0.26458 H 1.5874979 v 0.26458 z" /><path
       id="rect75"
       style="opacity:1;fill:#4d4d4d;fill-opacity:1;stroke:none;stroke-width:0.1;stroke-miterlimit:9"
       d="m 1.8520818,5.2917035 v 0.52917 h 0.2645828 v 0.79375 H 1.8520818 v 0.79375 h 4.2333329 v -0.79375 h -0.264583 v -0.79375 h 0.264583 v -0.52917 z" /><path
       id="rect78"
       style="opacity:1;fill:#ff5050;fill-opacity:1;stroke:none;stroke-width:0.1;stroke-miterlimit:9"
       d="m 2.6458316,4.7625435 v 0.52916 h 0.264583 v -0.52916 z m 1.3229171,0 v 0.52916 h 0.264583 v -0.52916 z m -2.1166669,3.175 v 0.26458 h 0.7937498 v -0.26458 z m 2.1166669,0 v 0.26458 h 0.79375 v -0.26458 z" /><path
       id="rect81"
       style="opacity:1;fill:#784421;fill-opacity:1;stroke:none;stroke-width:0.0925821;stroke-miterlimit:9"
       d="m 1.3229149,8.2021235 v 0.26458 h 1.5874997 v -0.26458 z m 2.3812498,0 v 0.26458 h 1.5875 v -0.26458 z" /><path
       id="rect83"
       style="opacity:1;fill:#000000;fill-opacity:1;stroke:none;stroke-width:0.1;stroke-miterlimit:9"
       d="m 0.52917237,4.2333431 v 0.2645804 h 0.26458331 v 0.26458 H 1.058339 v 0.52917 H 0.79375568 v 0.26458 H 0.52917237 v 0.79375 H 1.058339 v 0.26459 h 0.2645834 v 0.26458 h 0.2645833 v -1.05833 H 1.3229224 v -0.26459 h 0.2645833 v -0.26458 h 1.0583329 v -0.52917 H 1.8520889 v -0.26458 H 1.3229224 V 4.2333431 H 0.79375568 Z m 4.49791633,0 v 0.2645804 h -0.264583 v 0.26458 h -0.264583 v 0.52917 h 1.058333 v -0.52917 H 5.2916727 V 4.4979235 4.2333431 Z M 3.1750056,4.7625035 v 0.52917 h 0.7937501 v -0.52917 z m -1.5874999,2.91042 v 0.26458 0.26459 h 0.2645832 v -0.26459 h 0.7937497 v -0.26458 z m 2.116667,0 v 0.26458 0.26459 h 0.264583 v -0.26459 h 0.79375 v -0.26458 z" /></g></svg>
