<?xml version="1.0" encoding="UTF-8" standalone="no"?>
<!-- Created with Inkscape (http://www.inkscape.org/) -->

<svg
   width="22"
   height="18"
   viewBox="0 0 5.8208333 4.7625003"
   version="1.1"
   id="svg1"
   xml:space="preserve"
   inkscape:version="1.3 (0e150ed6c4, 2023-07-21)"
   sodipodi:docname="logo_pixel_favicon.svg"
   xmlns:inkscape="http://www.inkscape.org/namespaces/inkscape"
   xmlns:sodipodi="http://sodipodi.sourceforge.net/DTD/sodipodi-0.dtd"
   xmlns="http://www.w3.org/2000/svg"
   xmlns:svg="http://www.w3.org/2000/svg"><sodipodi:namedview
     id="namedview1"
     pagecolor="#ffffff"
     bordercolor="#000000"
     borderopacity="0.25"
     inkscape:showpageshadow="2"
     inkscape:pageopacity="0.0"
     inkscape:pagecheckerboard="0"
     inkscape:deskcolor="#d1d1d1"
     inkscape:document-units="mm"
     showgrid="true"
     inkscape:zoom="23.806246"
     inkscape:cx="19.82673"
     inkscape:cy="20.645842"
     inkscape:window-width="3440"
     inkscape:window-height="1377"
     inkscape:window-x="1432"
     inkscape:window-y="921"
     inkscape:window-maximized="1"
     inkscape:current-layer="layer1"><inkscape:grid
       id="grid1"
       units="px"
       originx="0"
       originy="0"
       spacingx="0.26458333"
       spacingy="0.26458333"
       empcolor="#0099e5"
       empopacity="0.30196078"
       color="#0099e5"
       opacity="0.14901961"
       empspacing="5"
       dotted="false"
       gridanglex="30"
       gridanglez="30"
       visible="true" /></sodipodi:namedview><defs
     id="defs1" /><g
     inkscape:label="Capa 1"
     inkscape:groupmode="layer"
     id="layer1"><g
       id="g3"
       transform="translate(-7.6729162,0.7937533)"><path
         id="rect33-2-67"
         style="fill:#333333;fill-opacity:1;stroke:none;stroke-width:0.1;stroke-miterlimit:9"
         d="m 9.7895833,-0.79374694 v 0.26458 h 0.2645827 v 0.26458 H 10.31875 V 3.06e-6 0.2645831 h 0.264583 v 0.26458 h 0.264583 v 0.26459 0.26458 h 0.79375 v -0.26458 h 0.529167 v 0.26458 H 12.435416 12.7 v 0.26458 h 0.264583 v -0.26458 h 0.264583 v -0.26458 h 0.264584 v -0.26459 H 13.229166 12.964583 V 3.06e-6 H 12.435416 V 0.5291631 h -0.264583 v -0.26458 -0.79375004 h -0.79375 V 3.06e-6 H 11.1125 V 0.2645831 H 10.847916 V 3.06e-6 v -0.26459 -0.26458 H 10.31875 v -0.26458 z M 7.9375006,3.06e-6 V 0.2645831 h 0.264583 v 0.26458 h 0.529167 v -0.26458 H 8.4666666 V 3.06e-6 h -0.264583 z m 1.322916,0.26458004 v 0.26458 0.26459 0.26458 h 0.7937494 v -0.26458 H 9.7895833 v -0.26459 H 9.5250005 v -0.26458 z m -1.322916,1.32292 v 0.26458 h 0.529166 v -0.26458 z" /><path
         id="rect13-1-5"
         style="fill:#1a1a1a;fill-opacity:1;stroke:none;stroke-width:0.1;stroke-miterlimit:9"
         d="M 10.054166,-0.26458694 V 3.06e-6 H 9.7895833 V 0.2645831 h 0.2645827 v 0.52917 h 0.264584 0.264583 v 0.26458 h 0.264583 v -0.52917 h -0.264583 v -0.26458 H 10.31875 v -0.52917004 z m 0.79375,1.32292004 v 0.26458 H 11.1125 v -0.26458 z m -1.8520824,-0.79375 v 0.26458 h -0.529167 -0.264583 v 0.26459 h 0.264583 v 0.52916 h -0.79375 v 0.26459 h 0.79375 v 0.26458 h 0.264584 v -0.26458 -0.26459 -0.26458 h 0.264583 v 0.26458 h 0.264583 v 0.26459 0.26458 h 0.2645839 v -0.26458 h 0.5291655 v -0.26459 h 0.264584 v -0.26458 H 9.2604166 v -0.52917 -0.26458 z m 2.9104164,0.52917 v 0.52916 H 12.170833 12.7 v -0.26458 h -0.529167 v -0.26458 z M 12.7,1.3229131 v 0.26459 h 0.264583 v 0.26458 h 0.264583 v -0.0894 h 0.264584 v -0.70435 -0.26458 h -0.264584 v 0.26458 h -0.264583 v 0.26458 z m -1.322917,-0.26458 v 0.26458 h 0.264583 v -0.26458 z" /><path
         id="rect1-8-3"
         style="fill:#000000;fill-opacity:1;stroke:none;stroke-width:0.1;stroke-miterlimit:9"
         d="M 10.847916,3.06e-6 V 0.2645831 h 0.264583 V 3.06e-6 Z M 9.5249995,0.2645831 v 0.26458 h 0.2645828 v 0.26459 h 0.2645837 v -0.26459 -0.26458 z m 0.5291665,0.52917 v 0.26458 h 0.264583 v 0.26458 h -0.264583 v 0.26459 h 2.38125 v 0.26458 h 0.264583 v 0.26458 1.05834 h 0.264583 v -1.05834 h 0.264584 v -0.26458 h -0.264584 v -0.26458 h -0.264583 v -0.26459 h -0.79375 v -0.52916 h -0.264583 v 0.52916 h -0.264584 v -0.26458 h -0.264583 v 0.26458 h -0.264583 v -0.26458 h -0.264584 v -0.26458 h -0.264583 z m 0,0.79375 H 9.5249995 v 0.26458 H 9.2604166 v -0.52917 h -0.264584 v -0.26458 h -0.264583 v 0.79375 h -0.529167 v 0.26458 h 0.264584 v 0.79375 h 0.264583 v -0.79375 h 0.529167 v 0.52917 h 0.2645829 v -0.52917 h 0.2645828 v -0.26458 h 0.2645837 z m -1.3229164,1.32291 v 0.26459 h 0.529167 v -0.26459 z m 3.4395824,-2.64583 v 0.26458 h 0.264584 v -0.26458 z m 0.79375,0 v 0.26458 h 0.264584 v -0.26458 z" /><path
         id="rect51-7-1"
         style="fill:#ff9955;fill-opacity:1;stroke:none;stroke-width:0.1;stroke-miterlimit:9"
         d="m 10.054172,1.5875031 v 0.26459 h 2.38125 v -0.26459 z m 2.38125,0.26459 v 0.26458 h 0.264583 v -0.26458 z m -3.7041663,0.26458 v 0.79375 h 0.5291667 v 0.52917 h 0.2645832 0.2645837 v -1.32292 H 9.5250056 v 0.52917 H 9.2604224 v -0.52917 z m 1.0583336,1.32292 V 3.7041735 H 10.054172 V 3.4395931 Z" /><path
         id="rect56-2-6"
         style="fill:#ffb380;fill-opacity:1;stroke:none;stroke-width:0.1;stroke-miterlimit:9"
         d="m 9.7895893,1.8520931 v 1.5875 h 0.2645827 v 0.2645804 h 2.38125 V 3.4395931 h 0.264583 v -1.32292 h -0.264583 v -0.26458 z m 0.2645827,0.26458 h 0.529167 v 0.79375 h 1.058333 v -0.79375 h 0.529167 v 0.79375 h -0.529167 v 0.26458 h -0.264583 v 0.26459 h -0.529167 v -0.26459 h -0.264583 v -0.26458 h -0.529167 z"
         sodipodi:nodetypes="cccccccccccccccccccccccccccc" /><path
         id="rect57-9-4"
         style="fill:#1a1a1a;fill-opacity:1;stroke:none;stroke-width:0.1;stroke-miterlimit:9"
         d="m 10.318749,2.1166631 v 0.26459 h -0.264583 v 0.52916 h 0.264583 0.264583 v -0.79375 z m 1.5875,0 v 0.26459 h -0.264583 v 0.52916 h 0.264583 0.264583 v -0.79375 z" /><rect
         style="fill:#cccccc;fill-opacity:1;stroke:none;stroke-width:0.1;stroke-miterlimit:9"
         id="rect60-5-2"
         width="0.26458332"
         height="0.26458332"
         x="10.054172"
         y="2.1166611" /><rect
         style="fill:#cccccc;fill-opacity:1;stroke:none;stroke-width:0.1;stroke-miterlimit:9"
         id="rect61-4-5"
         width="0.26458332"
         height="0.26458332"
         x="11.641665"
         y="2.1166611" /><path
         id="rect62-6-9"
         style="fill:#ff2a2a;fill-opacity:1;stroke:none;stroke-width:0.1;stroke-miterlimit:9"
         d="m 10.583333,2.9104131 v 0.26459 h 0.264583 v 0.26458 h 0.529167 v -0.26458 h 0.264583 v -0.26459 z" /><path
         id="rect64-7"
         style="fill:#1a1a1a;fill-opacity:1;stroke:none;stroke-width:0.1;stroke-miterlimit:9"
         d="m 8.9958316,3.1750131 v 0.26459 0.2645804 h 0.5291669 v 0.26458 h 0.2645828 0.7937497 0.264583 1.058334 0.264583 0.264583 v -0.26458 H 9.7895813 V 3.4396031 H 9.5249985 9.2604146 v -0.26459 z m 3.4395824,0.5291704 h 0.264584 V 3.4396031 h -0.264584 z"
         sodipodi:nodetypes="ccccccccccccccccccccccc" /></g></g></svg>
